<svg width="584" height="455" viewBox="0 0 584 455" fill="none" xmlns="http://www.w3.org/2000/svg">
<rect width="584" height="455" fill="#1249BE"/>
<path d="M0 0H307V47C307 185.071 195.071 297 57 297H0V0Z" fill="#0098FF"/>
<rect x="63" y="31" width="458" height="350" rx="10" fill="white"/>
<path d="M63 41C63 35.4772 67.4772 31 73 31H511C516.523 31 521 35.4772 521 41V49H63V41Z" fill="black"/>
<rect x="80" y="35" width="10" height="10" rx="5" fill="#E12525"/>
<rect x="105" y="35" width="10" height="10" rx="5" fill="#6CD946"/>
<rect x="130" y="35" width="10" height="10" rx="5" fill="#E2E623"/>
<rect x="98" y="81" width="100" height="100" rx="50" fill="#FBD334"/>
<path d="M98 131C98 103.386 120.386 81 148 81V81V181V181C120.386 181 98 158.614 98 131V131Z" fill="#1249BE"/>
<path d="M110.781 246.044C110.781 247.655 110.199 248.925 109.035 249.853C107.88 250.78 106.268 251.244 104.201 251.244C102.297 251.244 100.612 250.886 99.1475 250.17V246.654C100.352 247.191 101.369 247.57 102.199 247.79C103.037 248.009 103.802 248.119 104.494 248.119C105.324 248.119 105.959 247.96 106.398 247.643C106.846 247.326 107.07 246.854 107.07 246.227C107.07 245.877 106.972 245.568 106.777 245.299C106.582 245.023 106.293 244.758 105.91 244.506C105.536 244.254 104.767 243.851 103.603 243.297C102.513 242.785 101.695 242.292 101.149 241.82C100.604 241.348 100.169 240.799 99.8433 240.172C99.5177 239.546 99.355 238.813 99.355 237.975C99.355 236.396 99.888 235.155 100.954 234.252C102.028 233.349 103.509 232.897 105.397 232.897C106.325 232.897 107.208 233.007 108.046 233.227C108.893 233.446 109.776 233.756 110.695 234.154L109.475 237.096C108.522 236.706 107.733 236.433 107.106 236.278C106.488 236.124 105.878 236.046 105.275 236.046C104.559 236.046 104.01 236.213 103.627 236.547C103.245 236.881 103.054 237.316 103.054 237.853C103.054 238.187 103.131 238.48 103.286 238.732C103.44 238.976 103.684 239.216 104.018 239.452C104.36 239.68 105.161 240.095 106.423 240.697C108.091 241.495 109.235 242.296 109.853 243.102C110.472 243.9 110.781 244.88 110.781 246.044ZM119.265 251.244C115.017 251.244 112.893 248.913 112.893 244.25C112.893 241.93 113.47 240.16 114.626 238.939C115.782 237.711 117.438 237.096 119.594 237.096C121.173 237.096 122.589 237.405 123.842 238.024L122.744 240.905C122.158 240.669 121.612 240.478 121.108 240.331C120.603 240.176 120.099 240.099 119.594 240.099C117.657 240.099 116.689 241.474 116.689 244.225C116.689 246.894 117.657 248.229 119.594 248.229C120.31 248.229 120.974 248.135 121.584 247.948C122.194 247.753 122.805 247.452 123.415 247.045V250.231C122.813 250.613 122.202 250.878 121.584 251.024C120.974 251.171 120.201 251.244 119.265 251.244ZM139.187 251H135.463V243.029C135.463 241.059 134.731 240.075 133.266 240.075C132.224 240.075 131.472 240.429 131.008 241.137C130.544 241.845 130.312 242.992 130.312 244.579V251H126.589V232.006H130.312V235.875C130.312 236.177 130.284 236.885 130.227 238L130.141 239.098H130.336C131.167 237.764 132.485 237.096 134.292 237.096C135.895 237.096 137.111 237.528 137.941 238.39C138.771 239.253 139.187 240.49 139.187 242.101V251ZM145.986 244.152C145.986 245.503 146.206 246.524 146.645 247.216C147.093 247.908 147.817 248.253 148.818 248.253C149.811 248.253 150.523 247.912 150.954 247.228C151.394 246.536 151.613 245.511 151.613 244.152C151.613 242.801 151.394 241.788 150.954 241.112C150.515 240.437 149.794 240.099 148.793 240.099C147.801 240.099 147.084 240.437 146.645 241.112C146.206 241.78 145.986 242.793 145.986 244.152ZM155.422 244.152C155.422 246.374 154.836 248.111 153.664 249.364C152.492 250.618 150.861 251.244 148.769 251.244C147.459 251.244 146.303 250.959 145.302 250.39C144.301 249.812 143.532 248.986 142.995 247.912C142.458 246.837 142.189 245.584 142.189 244.152C142.189 241.922 142.771 240.189 143.935 238.952C145.099 237.715 146.735 237.096 148.842 237.096C150.153 237.096 151.308 237.381 152.309 237.951C153.31 238.52 154.079 239.338 154.616 240.404C155.153 241.47 155.422 242.72 155.422 244.152ZM161.464 244.152C161.464 245.503 161.684 246.524 162.124 247.216C162.571 247.908 163.295 248.253 164.296 248.253C165.289 248.253 166.001 247.912 166.433 247.228C166.872 246.536 167.092 245.511 167.092 244.152C167.092 242.801 166.872 241.788 166.433 241.112C165.993 240.437 165.273 240.099 164.272 240.099C163.279 240.099 162.563 240.437 162.124 241.112C161.684 241.78 161.464 242.793 161.464 244.152ZM170.9 244.152C170.9 246.374 170.314 248.111 169.143 249.364C167.971 250.618 166.339 251.244 164.248 251.244C162.937 251.244 161.782 250.959 160.781 250.39C159.78 249.812 159.011 248.986 158.474 247.912C157.937 246.837 157.668 245.584 157.668 244.152C157.668 241.922 158.25 240.189 159.414 238.952C160.577 237.715 162.213 237.096 164.321 237.096C165.631 237.096 166.787 237.381 167.788 237.951C168.789 238.52 169.558 239.338 170.095 240.404C170.632 241.47 170.9 242.72 170.9 244.152ZM177.7 251H173.977V232.006H177.7V251ZM192.128 251H188.405V233.153H198.635V236.254H192.128V240.856H198.183V243.944H192.128V251ZM207.485 239.745C206.695 239.745 206.077 239.997 205.629 240.502C205.182 240.998 204.925 241.706 204.86 242.626H210.085C210.069 241.706 209.829 240.998 209.365 240.502C208.901 239.997 208.274 239.745 207.485 239.745ZM208.01 251.244C205.812 251.244 204.095 250.638 202.858 249.425C201.621 248.213 201.003 246.496 201.003 244.274C201.003 241.987 201.573 240.221 202.712 238.976C203.859 237.723 205.442 237.096 207.46 237.096C209.389 237.096 210.891 237.646 211.965 238.744C213.039 239.843 213.576 241.361 213.576 243.297V245.104H204.775C204.816 246.162 205.129 246.988 205.715 247.582C206.301 248.176 207.123 248.473 208.181 248.473C209.003 248.473 209.78 248.388 210.512 248.217C211.245 248.046 212.01 247.773 212.807 247.399V250.28C212.156 250.605 211.46 250.845 210.72 251C209.979 251.163 209.076 251.244 208.01 251.244ZM222.255 239.745C221.466 239.745 220.847 239.997 220.4 240.502C219.952 240.998 219.696 241.706 219.631 242.626H224.855C224.839 241.706 224.599 240.998 224.135 240.502C223.671 239.997 223.045 239.745 222.255 239.745ZM222.78 251.244C220.583 251.244 218.866 250.638 217.629 249.425C216.392 248.213 215.773 246.496 215.773 244.274C215.773 241.987 216.343 240.221 217.482 238.976C218.63 237.723 220.213 237.096 222.231 237.096C224.16 237.096 225.661 237.646 226.735 238.744C227.81 239.843 228.347 241.361 228.347 243.297V245.104H219.545C219.586 246.162 219.899 246.988 220.485 247.582C221.071 248.176 221.893 248.473 222.951 248.473C223.773 248.473 224.55 248.388 225.283 248.217C226.015 248.046 226.78 247.773 227.578 247.399V250.28C226.927 250.605 226.231 250.845 225.49 251C224.75 251.163 223.846 251.244 222.78 251.244ZM240.896 246.947C240.896 248.347 240.407 249.413 239.431 250.146C238.462 250.878 237.01 251.244 235.073 251.244C234.08 251.244 233.234 251.175 232.534 251.037C231.834 250.906 231.179 250.711 230.568 250.451V247.375C231.26 247.7 232.037 247.973 232.9 248.192C233.771 248.412 234.536 248.522 235.195 248.522C236.546 248.522 237.221 248.131 237.221 247.35C237.221 247.057 237.132 246.821 236.953 246.642C236.774 246.455 236.464 246.247 236.025 246.02C235.585 245.784 235 245.511 234.267 245.202C233.217 244.762 232.444 244.355 231.948 243.981C231.459 243.607 231.101 243.179 230.874 242.699C230.654 242.211 230.544 241.613 230.544 240.905C230.544 239.692 231.012 238.756 231.948 238.097C232.892 237.43 234.226 237.096 235.952 237.096C237.596 237.096 239.195 237.454 240.749 238.17L239.626 240.856C238.942 240.563 238.304 240.323 237.709 240.136C237.115 239.949 236.509 239.855 235.891 239.855C234.792 239.855 234.243 240.152 234.243 240.746C234.243 241.08 234.418 241.369 234.768 241.613C235.126 241.857 235.903 242.219 237.099 242.699C238.165 243.131 238.946 243.533 239.443 243.908C239.939 244.282 240.306 244.713 240.542 245.202C240.778 245.69 240.896 246.272 240.896 246.947Z" fill="#1249BE"/>
<path d="M110.781 306.044C110.781 307.655 110.199 308.925 109.035 309.853C107.88 310.78 106.268 311.244 104.201 311.244C102.297 311.244 100.612 310.886 99.1475 310.17V306.654C100.352 307.191 101.369 307.57 102.199 307.79C103.037 308.009 103.802 308.119 104.494 308.119C105.324 308.119 105.959 307.96 106.398 307.643C106.846 307.326 107.07 306.854 107.07 306.227C107.07 305.877 106.972 305.568 106.777 305.299C106.582 305.023 106.293 304.758 105.91 304.506C105.536 304.254 104.767 303.851 103.603 303.297C102.513 302.785 101.695 302.292 101.149 301.82C100.604 301.348 100.169 300.799 99.8433 300.172C99.5177 299.546 99.355 298.813 99.355 297.975C99.355 296.396 99.888 295.155 100.954 294.252C102.028 293.349 103.509 292.897 105.397 292.897C106.325 292.897 107.208 293.007 108.046 293.227C108.893 293.446 109.776 293.756 110.695 294.154L109.475 297.096C108.522 296.706 107.733 296.433 107.106 296.278C106.488 296.124 105.878 296.046 105.275 296.046C104.559 296.046 104.01 296.213 103.627 296.547C103.245 296.881 103.054 297.316 103.054 297.853C103.054 298.187 103.131 298.48 103.286 298.732C103.44 298.976 103.684 299.216 104.018 299.452C104.36 299.68 105.161 300.095 106.423 300.697C108.091 301.495 109.235 302.296 109.853 303.102C110.472 303.9 110.781 304.88 110.781 306.044ZM122.39 311L121.669 309.145H121.572C120.945 309.934 120.298 310.483 119.631 310.792C118.972 311.094 118.109 311.244 117.043 311.244C115.733 311.244 114.699 310.87 113.942 310.121C113.194 309.372 112.819 308.306 112.819 306.923C112.819 305.474 113.324 304.408 114.333 303.725C115.35 303.033 116.88 302.65 118.923 302.577L121.291 302.504V301.906C121.291 300.522 120.583 299.831 119.167 299.831C118.076 299.831 116.795 300.16 115.322 300.819L114.089 298.305C115.66 297.483 117.401 297.072 119.313 297.072C121.145 297.072 122.548 297.471 123.525 298.268C124.501 299.066 124.99 300.278 124.99 301.906V311H122.39ZM121.291 304.677L119.851 304.726C118.768 304.758 117.963 304.953 117.434 305.312C116.905 305.67 116.64 306.215 116.64 306.947C116.64 307.997 117.242 308.522 118.447 308.522C119.309 308.522 119.997 308.274 120.51 307.777C121.031 307.281 121.291 306.622 121.291 305.8V304.677ZM132.082 311L126.882 297.353H130.776L133.413 305.128C133.706 306.113 133.889 307.045 133.962 307.924H134.035C134.076 307.143 134.259 306.211 134.584 305.128L137.209 297.353H141.103L135.903 311H132.082ZM142.91 293.825C142.91 292.612 143.585 292.006 144.936 292.006C146.287 292.006 146.962 292.612 146.962 293.825C146.962 294.403 146.792 294.854 146.45 295.18C146.116 295.497 145.611 295.656 144.936 295.656C143.585 295.656 142.91 295.045 142.91 293.825ZM146.792 311H143.068V297.353H146.792V311ZM163.308 311H159.584V303.029C159.584 302.044 159.41 301.308 159.06 300.819C158.71 300.323 158.152 300.075 157.387 300.075C156.346 300.075 155.593 300.425 155.129 301.125C154.665 301.816 154.433 302.968 154.433 304.579V311H150.71V297.353H153.554L154.055 299.098H154.262C154.677 298.439 155.247 297.943 155.971 297.609C156.704 297.267 157.534 297.096 158.461 297.096C160.048 297.096 161.253 297.528 162.075 298.39C162.897 299.245 163.308 300.482 163.308 302.101V311ZM179.018 297.353V299.245L176.882 299.794C177.272 300.404 177.468 301.088 177.468 301.845C177.468 303.31 176.955 304.453 175.93 305.275C174.912 306.089 173.496 306.496 171.682 306.496L171.01 306.459L170.461 306.398C170.078 306.691 169.887 307.016 169.887 307.375C169.887 307.912 170.571 308.18 171.938 308.18H174.257C175.755 308.18 176.894 308.502 177.675 309.145C178.465 309.787 178.859 310.731 178.859 311.977C178.859 313.572 178.192 314.809 176.857 315.688C175.531 316.566 173.623 317.006 171.132 317.006C169.228 317.006 167.771 316.672 166.762 316.005C165.761 315.346 165.261 314.418 165.261 313.222C165.261 312.4 165.517 311.712 166.03 311.159C166.542 310.605 167.295 310.211 168.288 309.975C167.906 309.812 167.572 309.547 167.287 309.181C167.002 308.807 166.86 308.412 166.86 307.997C166.86 307.476 167.01 307.045 167.312 306.703C167.613 306.353 168.048 306.011 168.618 305.678C167.902 305.368 167.332 304.872 166.909 304.188C166.494 303.505 166.286 302.699 166.286 301.771C166.286 300.282 166.77 299.131 167.739 298.317C168.707 297.503 170.091 297.096 171.889 297.096C172.272 297.096 172.723 297.133 173.244 297.206C173.773 297.271 174.111 297.32 174.257 297.353H179.018ZM168.483 312.929C168.483 313.441 168.728 313.844 169.216 314.137C169.712 314.43 170.404 314.577 171.291 314.577C172.626 314.577 173.671 314.394 174.428 314.027C175.185 313.661 175.563 313.161 175.563 312.526C175.563 312.013 175.34 311.659 174.892 311.464C174.444 311.269 173.753 311.171 172.817 311.171H170.888C170.205 311.171 169.631 311.33 169.167 311.647C168.711 311.972 168.483 312.4 168.483 312.929ZM169.838 301.82C169.838 302.561 170.005 303.147 170.339 303.578C170.681 304.009 171.197 304.225 171.889 304.225C172.589 304.225 173.102 304.009 173.427 303.578C173.753 303.147 173.916 302.561 173.916 301.82C173.916 300.176 173.24 299.354 171.889 299.354C170.522 299.354 169.838 300.176 169.838 301.82ZM190.798 306.947C190.798 308.347 190.31 309.413 189.333 310.146C188.365 310.878 186.912 311.244 184.975 311.244C183.982 311.244 183.136 311.175 182.436 311.037C181.736 310.906 181.081 310.711 180.471 310.451V307.375C181.162 307.7 181.94 307.973 182.802 308.192C183.673 308.412 184.438 308.522 185.097 308.522C186.448 308.522 187.124 308.131 187.124 307.35C187.124 307.057 187.034 306.821 186.855 306.642C186.676 306.455 186.367 306.247 185.927 306.02C185.488 305.784 184.902 305.511 184.169 305.202C183.12 304.762 182.347 304.355 181.85 303.981C181.362 303.607 181.004 303.179 180.776 302.699C180.556 302.211 180.446 301.613 180.446 300.905C180.446 299.692 180.914 298.756 181.85 298.097C182.794 297.43 184.129 297.096 185.854 297.096C187.498 297.096 189.097 297.454 190.651 298.17L189.528 300.856C188.845 300.563 188.206 300.323 187.612 300.136C187.018 299.949 186.411 299.855 185.793 299.855C184.694 299.855 184.145 300.152 184.145 300.746C184.145 301.08 184.32 301.369 184.67 301.613C185.028 301.857 185.805 302.219 187.001 302.699C188.068 303.131 188.849 303.533 189.345 303.908C189.842 304.282 190.208 304.713 190.444 305.202C190.68 305.69 190.798 306.272 190.798 306.947Z" fill="#FBD334"/>
<path d="M358.33 245.421C358.33 246.715 357.862 247.757 356.926 248.546C355.99 249.328 354.68 249.796 352.996 249.95V252.453H351.323V249.999C349.338 249.958 347.596 249.608 346.099 248.949V245.727C346.807 246.076 347.657 246.386 348.65 246.654C349.651 246.923 350.542 247.082 351.323 247.13V243.346L350.505 243.029C348.894 242.394 347.751 241.706 347.075 240.966C346.408 240.217 346.074 239.293 346.074 238.195C346.074 237.015 346.534 236.046 347.454 235.29C348.381 234.525 349.671 234.061 351.323 233.898V232.03H352.996V233.849C354.859 233.931 356.544 234.305 358.049 234.972L356.902 237.829C355.632 237.308 354.33 236.99 352.996 236.876V240.478C354.583 241.088 355.71 241.617 356.377 242.064C357.052 242.512 357.545 243.004 357.854 243.542C358.171 244.079 358.33 244.705 358.33 245.421ZM354.656 245.604C354.656 245.263 354.517 244.974 354.241 244.738C353.964 244.502 353.549 244.258 352.996 244.005V247.045C354.102 246.858 354.656 246.378 354.656 245.604ZM349.749 238.195C349.749 238.553 349.871 238.85 350.115 239.086C350.367 239.314 350.77 239.55 351.323 239.794V236.925C350.273 237.08 349.749 237.503 349.749 238.195ZM369.609 251H365.837V240.673L365.874 238.976L365.935 237.121C365.308 237.747 364.873 238.158 364.629 238.354L362.578 240.001L360.759 237.731L366.509 233.153H369.609V251ZM393.535 251H381.06V248.375L385.54 243.847C386.866 242.488 387.733 241.548 388.14 241.027C388.547 240.498 388.84 240.01 389.019 239.562C389.198 239.114 389.287 238.651 389.287 238.17C389.287 237.454 389.088 236.921 388.689 236.571C388.298 236.221 387.773 236.046 387.114 236.046C386.423 236.046 385.751 236.205 385.1 236.522C384.449 236.84 383.77 237.292 383.062 237.877L381.011 235.448C381.89 234.7 382.618 234.171 383.196 233.861C383.774 233.552 384.404 233.316 385.088 233.153C385.771 232.982 386.536 232.897 387.383 232.897C388.498 232.897 389.482 233.1 390.337 233.507C391.191 233.914 391.855 234.484 392.327 235.216C392.799 235.949 393.035 236.787 393.035 237.731C393.035 238.553 392.888 239.326 392.595 240.05C392.31 240.766 391.863 241.503 391.252 242.26C390.65 243.017 389.584 244.095 388.054 245.495L385.759 247.655V247.826H393.535V251ZM407.72 242.077C407.72 245.194 407.207 247.501 406.182 248.998C405.164 250.495 403.594 251.244 401.47 251.244C399.411 251.244 397.856 250.471 396.807 248.925C395.765 247.379 395.244 245.096 395.244 242.077C395.244 238.927 395.753 236.608 396.77 235.119C397.787 233.621 399.354 232.873 401.47 232.873C403.529 232.873 405.083 233.654 406.133 235.216C407.191 236.779 407.72 239.066 407.72 242.077ZM398.992 242.077C398.992 244.266 399.179 245.836 399.553 246.789C399.936 247.733 400.575 248.205 401.47 248.205C402.349 248.205 402.983 247.724 403.374 246.764C403.765 245.804 403.96 244.241 403.96 242.077C403.96 239.888 403.761 238.317 403.362 237.365C402.971 236.404 402.34 235.924 401.47 235.924C400.583 235.924 399.948 236.404 399.565 237.365C399.183 238.317 398.992 239.888 398.992 242.077ZM422.002 242.077C422.002 245.194 421.489 247.501 420.464 248.998C419.447 250.495 417.876 251.244 415.752 251.244C413.693 251.244 412.139 250.471 411.089 248.925C410.047 247.379 409.526 245.096 409.526 242.077C409.526 238.927 410.035 236.608 411.052 235.119C412.069 233.621 413.636 232.873 415.752 232.873C417.811 232.873 419.365 233.654 420.415 235.216C421.473 236.779 422.002 239.066 422.002 242.077ZM413.274 242.077C413.274 244.266 413.461 245.836 413.835 246.789C414.218 247.733 414.857 248.205 415.752 248.205C416.631 248.205 417.266 247.724 417.656 246.764C418.047 245.804 418.242 244.241 418.242 242.077C418.242 239.888 418.043 238.317 417.644 237.365C417.253 236.404 416.623 235.924 415.752 235.924C414.865 235.924 414.23 236.404 413.848 237.365C413.465 238.317 413.274 239.888 413.274 242.077ZM424.333 249.254C424.333 248.571 424.517 248.054 424.883 247.704C425.249 247.354 425.782 247.179 426.482 247.179C427.157 247.179 427.678 247.358 428.044 247.716C428.419 248.074 428.606 248.587 428.606 249.254C428.606 249.897 428.419 250.406 428.044 250.78C427.67 251.146 427.149 251.33 426.482 251.33C425.798 251.33 425.269 251.151 424.895 250.792C424.521 250.426 424.333 249.914 424.333 249.254ZM443.413 242.077C443.413 245.194 442.9 247.501 441.875 248.998C440.858 250.495 439.287 251.244 437.163 251.244C435.104 251.244 433.55 250.471 432.5 248.925C431.458 247.379 430.938 245.096 430.938 242.077C430.938 238.927 431.446 236.608 432.463 235.119C433.481 233.621 435.047 232.873 437.163 232.873C439.222 232.873 440.776 233.654 441.826 235.216C442.884 236.779 443.413 239.066 443.413 242.077ZM434.685 242.077C434.685 244.266 434.872 245.836 435.247 246.789C435.629 247.733 436.268 248.205 437.163 248.205C438.042 248.205 438.677 247.724 439.067 246.764C439.458 245.804 439.653 244.241 439.653 242.077C439.653 239.888 439.454 238.317 439.055 237.365C438.665 236.404 438.034 235.924 437.163 235.924C436.276 235.924 435.641 236.404 435.259 237.365C434.876 238.317 434.685 239.888 434.685 242.077ZM457.695 242.077C457.695 245.194 457.183 247.501 456.157 248.998C455.14 250.495 453.569 251.244 451.445 251.244C449.386 251.244 447.832 250.471 446.782 248.925C445.741 247.379 445.22 245.096 445.22 242.077C445.22 238.927 445.728 236.608 446.746 235.119C447.763 233.621 449.329 232.873 451.445 232.873C453.504 232.873 455.059 233.654 456.108 235.216C457.166 236.779 457.695 239.066 457.695 242.077ZM448.967 242.077C448.967 244.266 449.154 245.836 449.529 246.789C449.911 247.733 450.55 248.205 451.445 248.205C452.324 248.205 452.959 247.724 453.35 246.764C453.74 245.804 453.936 244.241 453.936 242.077C453.936 239.888 453.736 238.317 453.337 237.365C452.947 236.404 452.316 235.924 451.445 235.924C450.558 235.924 449.924 236.404 449.541 237.365C449.159 238.317 448.967 239.888 448.967 242.077ZM358.33 305.421C358.33 306.715 357.862 307.757 356.926 308.546C355.99 309.328 354.68 309.796 352.996 309.95V312.453H351.323V309.999C349.338 309.958 347.596 309.608 346.099 308.949V305.727C346.807 306.076 347.657 306.386 348.65 306.654C349.651 306.923 350.542 307.082 351.323 307.13V303.346L350.505 303.029C348.894 302.394 347.751 301.706 347.075 300.966C346.408 300.217 346.074 299.293 346.074 298.195C346.074 297.015 346.534 296.046 347.454 295.29C348.381 294.525 349.671 294.061 351.323 293.898V292.03H352.996V293.849C354.859 293.931 356.544 294.305 358.049 294.972L356.902 297.829C355.632 297.308 354.33 296.99 352.996 296.876V300.478C354.583 301.088 355.71 301.617 356.377 302.064C357.052 302.512 357.545 303.004 357.854 303.542C358.171 304.079 358.33 304.705 358.33 305.421ZM354.656 305.604C354.656 305.263 354.517 304.974 354.241 304.738C353.964 304.502 353.549 304.258 352.996 304.005V307.045C354.102 306.858 354.656 306.378 354.656 305.604ZM349.749 298.195C349.749 298.553 349.871 298.85 350.115 299.086C350.367 299.314 350.77 299.55 351.323 299.794V296.925C350.273 297.08 349.749 297.503 349.749 298.195ZM369.609 311H365.837V300.673L365.874 298.976L365.935 297.121C365.308 297.747 364.873 298.158 364.629 298.354L362.578 300.001L360.759 297.731L366.509 293.153H369.609V311ZM393.535 311H381.06V308.375L385.54 303.847C386.866 302.488 387.733 301.548 388.14 301.027C388.547 300.498 388.84 300.01 389.019 299.562C389.198 299.114 389.287 298.651 389.287 298.17C389.287 297.454 389.088 296.921 388.689 296.571C388.298 296.221 387.773 296.046 387.114 296.046C386.423 296.046 385.751 296.205 385.1 296.522C384.449 296.84 383.77 297.292 383.062 297.877L381.011 295.448C381.89 294.7 382.618 294.171 383.196 293.861C383.774 293.552 384.404 293.316 385.088 293.153C385.771 292.982 386.536 292.897 387.383 292.897C388.498 292.897 389.482 293.1 390.337 293.507C391.191 293.914 391.855 294.484 392.327 295.216C392.799 295.949 393.035 296.787 393.035 297.731C393.035 298.553 392.888 299.326 392.595 300.05C392.31 300.766 391.863 301.503 391.252 302.26C390.65 303.017 389.584 304.095 388.054 305.495L385.759 307.655V307.826H393.535V311ZM407.72 302.077C407.72 305.194 407.207 307.501 406.182 308.998C405.164 310.495 403.594 311.244 401.47 311.244C399.411 311.244 397.856 310.471 396.807 308.925C395.765 307.379 395.244 305.096 395.244 302.077C395.244 298.927 395.753 296.608 396.77 295.119C397.787 293.621 399.354 292.873 401.47 292.873C403.529 292.873 405.083 293.654 406.133 295.216C407.191 296.779 407.72 299.066 407.72 302.077ZM398.992 302.077C398.992 304.266 399.179 305.836 399.553 306.789C399.936 307.733 400.575 308.205 401.47 308.205C402.349 308.205 402.983 307.724 403.374 306.764C403.765 305.804 403.96 304.241 403.96 302.077C403.96 299.888 403.761 298.317 403.362 297.365C402.971 296.404 402.34 295.924 401.47 295.924C400.583 295.924 399.948 296.404 399.565 297.365C399.183 298.317 398.992 299.888 398.992 302.077ZM422.002 302.077C422.002 305.194 421.489 307.501 420.464 308.998C419.447 310.495 417.876 311.244 415.752 311.244C413.693 311.244 412.139 310.471 411.089 308.925C410.047 307.379 409.526 305.096 409.526 302.077C409.526 298.927 410.035 296.608 411.052 295.119C412.069 293.621 413.636 292.873 415.752 292.873C417.811 292.873 419.365 293.654 420.415 295.216C421.473 296.779 422.002 299.066 422.002 302.077ZM413.274 302.077C413.274 304.266 413.461 305.836 413.835 306.789C414.218 307.733 414.857 308.205 415.752 308.205C416.631 308.205 417.266 307.724 417.656 306.764C418.047 305.804 418.242 304.241 418.242 302.077C418.242 299.888 418.043 298.317 417.644 297.365C417.253 296.404 416.623 295.924 415.752 295.924C414.865 295.924 414.23 296.404 413.848 297.365C413.465 298.317 413.274 299.888 413.274 302.077ZM424.333 309.254C424.333 308.571 424.517 308.054 424.883 307.704C425.249 307.354 425.782 307.179 426.482 307.179C427.157 307.179 427.678 307.358 428.044 307.716C428.419 308.074 428.606 308.587 428.606 309.254C428.606 309.897 428.419 310.406 428.044 310.78C427.67 311.146 427.149 311.33 426.482 311.33C425.798 311.33 425.269 311.151 424.895 310.792C424.521 310.426 424.333 309.914 424.333 309.254ZM443.413 302.077C443.413 305.194 442.9 307.501 441.875 308.998C440.858 310.495 439.287 311.244 437.163 311.244C435.104 311.244 433.55 310.471 432.5 308.925C431.458 307.379 430.938 305.096 430.938 302.077C430.938 298.927 431.446 296.608 432.463 295.119C433.481 293.621 435.047 292.873 437.163 292.873C439.222 292.873 440.776 293.654 441.826 295.216C442.884 296.779 443.413 299.066 443.413 302.077ZM434.685 302.077C434.685 304.266 434.872 305.836 435.247 306.789C435.629 307.733 436.268 308.205 437.163 308.205C438.042 308.205 438.677 307.724 439.067 306.764C439.458 305.804 439.653 304.241 439.653 302.077C439.653 299.888 439.454 298.317 439.055 297.365C438.665 296.404 438.034 295.924 437.163 295.924C436.276 295.924 435.641 296.404 435.259 297.365C434.876 298.317 434.685 299.888 434.685 302.077ZM457.695 302.077C457.695 305.194 457.183 307.501 456.157 308.998C455.14 310.495 453.569 311.244 451.445 311.244C449.386 311.244 447.832 310.471 446.782 308.925C445.741 307.379 445.22 305.096 445.22 302.077C445.22 298.927 445.728 296.608 446.746 295.119C447.763 293.621 449.329 292.873 451.445 292.873C453.504 292.873 455.059 293.654 456.108 295.216C457.166 296.779 457.695 299.066 457.695 302.077ZM448.967 302.077C448.967 304.266 449.154 305.836 449.529 306.789C449.911 307.733 450.55 308.205 451.445 308.205C452.324 308.205 452.959 307.724 453.35 306.764C453.74 305.804 453.936 304.241 453.936 302.077C453.936 299.888 453.736 298.317 453.337 297.365C452.947 296.404 452.316 295.924 451.445 295.924C450.558 295.924 449.924 296.404 449.541 297.365C449.159 298.317 448.967 299.888 448.967 302.077Z" fill="black"/>
</svg>
