<svg width="479" height="407" viewBox="0 0 479 407" fill="none" xmlns="http://www.w3.org/2000/svg">
<rect width="479" height="407" fill="#FFB4C4"/>
<path d="M172 0H479V250H422C283.929 250 172 138.071 172 0V0Z" fill="#FBD334"/>
<rect x="233" y="97" width="191" height="271" rx="10" fill="white"/>
<rect x="20" y="85" width="161" height="172" rx="10" fill="white"/>
<path d="M271 131C262.716 131 256 124.284 256 116V115L286 115V116C286 124.284 279.284 131 271 131V131Z" fill="#FBD334"/>
<path d="M253 118C253 108.611 260.611 101 270 101V101V139V139C260.611 139 253 131.389 253 122V118Z" fill="#1249BE"/>
<path d="M80.9316 129.099C80.9316 129.772 80.6883 130.314 80.2017 130.724C79.715 131.13 79.0337 131.374 78.1577 131.454V132.755H77.2881V131.479C76.2555 131.458 75.3499 131.276 74.5713 130.934V129.258C74.9395 129.44 75.3817 129.601 75.8979 129.74C76.4185 129.88 76.8818 129.962 77.2881 129.988V128.02L76.8628 127.855C76.0249 127.525 75.4303 127.167 75.0791 126.782C74.7321 126.393 74.5586 125.913 74.5586 125.341C74.5586 124.728 74.7977 124.224 75.2759 123.831C75.7583 123.433 76.429 123.192 77.2881 123.107V122.136H78.1577V123.082C79.1268 123.124 80.0028 123.319 80.7856 123.666L80.189 125.151C79.5288 124.88 78.8517 124.715 78.1577 124.656V126.528C78.9829 126.846 79.569 127.121 79.916 127.354C80.2673 127.586 80.5233 127.842 80.6841 128.122C80.8491 128.401 80.9316 128.727 80.9316 129.099ZM79.021 129.194C79.021 129.017 78.9491 128.866 78.8052 128.744C78.6613 128.621 78.4455 128.494 78.1577 128.363V129.943C78.7332 129.846 79.021 129.596 79.021 129.194ZM76.4692 125.341C76.4692 125.528 76.5327 125.682 76.6597 125.805C76.7909 125.923 77.0003 126.046 77.2881 126.173V124.681C76.7422 124.762 76.4692 124.982 76.4692 125.341ZM91.4497 124.795C91.4497 125.375 91.2741 125.868 90.9229 126.274C90.5716 126.681 90.0786 126.96 89.4438 127.112V127.15C90.1929 127.243 90.7599 127.472 91.145 127.836C91.5301 128.196 91.7227 128.682 91.7227 129.296C91.7227 130.189 91.3989 130.885 90.7515 131.384C90.104 131.879 89.1794 132.127 87.9775 132.127C86.9704 132.127 86.0775 131.96 85.2988 131.625V129.956C85.6585 130.138 86.0542 130.286 86.4858 130.4C86.9175 130.515 87.3449 130.572 87.7681 130.572C88.4155 130.572 88.8937 130.462 89.2026 130.242C89.5116 130.022 89.666 129.668 89.666 129.182C89.666 128.746 89.4883 128.437 89.1328 128.255C88.7773 128.073 88.2103 127.982 87.4316 127.982H86.7271V126.478H87.4443C88.1637 126.478 88.6885 126.384 89.0186 126.198C89.3529 126.008 89.52 125.684 89.52 125.227C89.52 124.525 89.0799 124.173 88.1997 124.173C87.895 124.173 87.584 124.224 87.2666 124.326C86.9535 124.427 86.6043 124.603 86.2192 124.853L85.3115 123.5C86.1579 122.891 87.1672 122.586 88.3394 122.586C89.3 122.586 90.0575 122.781 90.6118 123.17C91.1704 123.56 91.4497 124.101 91.4497 124.795ZM99.1875 127.36C99.1875 128.981 98.9209 130.18 98.3877 130.959C97.8587 131.738 97.042 132.127 95.9375 132.127C94.8669 132.127 94.0586 131.725 93.5127 130.921C92.971 130.117 92.7002 128.93 92.7002 127.36C92.7002 125.722 92.9647 124.516 93.4937 123.742C94.0226 122.963 94.8372 122.574 95.9375 122.574C97.0081 122.574 97.8164 122.98 98.3623 123.792C98.9124 124.605 99.1875 125.794 99.1875 127.36ZM94.6489 127.36C94.6489 128.498 94.7463 129.315 94.9409 129.81C95.1398 130.301 95.472 130.546 95.9375 130.546C96.3945 130.546 96.7246 130.297 96.9277 129.797C97.1309 129.298 97.2324 128.486 97.2324 127.36C97.2324 126.222 97.1287 125.405 96.9214 124.91C96.7183 124.41 96.3903 124.161 95.9375 124.161C95.4762 124.161 95.1462 124.41 94.9473 124.91C94.7484 125.405 94.6489 126.222 94.6489 127.36ZM100.4 131.092C100.4 130.737 100.495 130.468 100.686 130.286C100.876 130.104 101.153 130.013 101.517 130.013C101.868 130.013 102.139 130.106 102.33 130.292C102.524 130.479 102.622 130.745 102.622 131.092C102.622 131.427 102.524 131.691 102.33 131.886C102.135 132.076 101.864 132.171 101.517 132.171C101.162 132.171 100.887 132.078 100.692 131.892C100.497 131.702 100.4 131.435 100.4 131.092ZM110.334 126.681C110.334 128.509 109.949 129.874 109.179 130.775C108.409 131.676 107.243 132.127 105.681 132.127C105.131 132.127 104.714 132.097 104.431 132.038V130.464C104.786 130.553 105.159 130.597 105.548 130.597C106.204 130.597 106.743 130.502 107.167 130.312C107.59 130.117 107.913 129.814 108.138 129.404C108.362 128.989 108.491 128.42 108.525 127.696H108.449C108.203 128.094 107.92 128.373 107.598 128.534C107.277 128.695 106.875 128.775 106.392 128.775C105.584 128.775 104.947 128.517 104.481 128.001C104.016 127.48 103.783 126.759 103.783 125.836C103.783 124.842 104.065 124.057 104.627 123.481C105.194 122.902 105.965 122.612 106.938 122.612C107.624 122.612 108.222 122.773 108.734 123.094C109.251 123.416 109.646 123.883 109.921 124.497C110.196 125.106 110.334 125.834 110.334 126.681ZM106.976 124.186C106.57 124.186 106.252 124.326 106.024 124.605C105.795 124.884 105.681 125.286 105.681 125.811C105.681 126.26 105.785 126.615 105.992 126.877C106.2 127.14 106.515 127.271 106.938 127.271C107.336 127.271 107.676 127.142 107.96 126.884C108.243 126.621 108.385 126.321 108.385 125.982C108.385 125.479 108.252 125.054 107.985 124.707C107.723 124.36 107.387 124.186 106.976 124.186ZM117.761 126.681C117.761 128.509 117.376 129.874 116.605 130.775C115.835 131.676 114.669 132.127 113.108 132.127C112.558 132.127 112.141 132.097 111.857 132.038V130.464C112.213 130.553 112.585 130.597 112.975 130.597C113.631 130.597 114.17 130.502 114.593 130.312C115.016 130.117 115.34 129.814 115.564 129.404C115.789 128.989 115.918 128.42 115.952 127.696H115.875C115.63 128.094 115.347 128.373 115.025 128.534C114.703 128.695 114.301 128.775 113.819 128.775C113.011 128.775 112.374 128.517 111.908 128.001C111.443 127.48 111.21 126.759 111.21 125.836C111.21 124.842 111.491 124.057 112.054 123.481C112.621 122.902 113.391 122.612 114.365 122.612C115.05 122.612 115.649 122.773 116.161 123.094C116.677 123.416 117.073 123.883 117.348 124.497C117.623 125.106 117.761 125.834 117.761 126.681ZM114.403 124.186C113.997 124.186 113.679 124.326 113.451 124.605C113.222 124.884 113.108 125.286 113.108 125.811C113.108 126.26 113.212 126.615 113.419 126.877C113.626 127.14 113.942 127.271 114.365 127.271C114.763 127.271 115.103 127.142 115.387 126.884C115.67 126.621 115.812 126.321 115.812 125.982C115.812 125.479 115.679 125.054 115.412 124.707C115.15 124.36 114.813 124.186 114.403 124.186ZM74.884 172V168.789H74.13V167.827H74.884V166.891H74.13V165.929H74.884V162.718H76.925L77.939 165.929H79.122V162.718H80.565V165.929H81.306V166.891H80.565V167.827H81.306V168.789H80.565V172H78.511L77.471 168.789H76.327V172H74.884ZM76.275 165.929H76.639L76.262 164.681H76.21L76.275 165.929ZM76.327 167.827H77.185L76.899 166.891H76.301L76.327 167.827ZM78.55 167.827H79.148L79.122 166.891H78.251L78.55 167.827ZM79.161 169.972H79.226L79.174 168.789H78.823L79.161 169.972ZM88.7139 166.071C89.611 166.071 90.3241 166.323 90.853 166.827C91.3862 167.33 91.6528 168.02 91.6528 168.896C91.6528 169.933 91.3333 170.73 90.6943 171.289C90.0553 171.848 89.1413 172.127 87.9521 172.127C86.9196 172.127 86.0859 171.96 85.4512 171.625V169.931C85.7855 170.108 86.1748 170.254 86.6191 170.369C87.0635 170.479 87.4845 170.534 87.8823 170.534C89.0799 170.534 89.6787 170.043 89.6787 169.061C89.6787 168.126 89.0588 167.658 87.8188 167.658C87.5946 167.658 87.347 167.681 87.0762 167.728C86.8053 167.77 86.5853 167.817 86.416 167.868L85.6353 167.449L85.9844 162.72H91.0181V164.383H87.7046L87.5332 166.205L87.7554 166.16C88.0135 166.101 88.333 166.071 88.7139 166.071ZM99.2002 167.36C99.2002 168.981 98.9336 170.18 98.4004 170.959C97.8714 171.738 97.0547 172.127 95.9502 172.127C94.8796 172.127 94.0713 171.725 93.5254 170.921C92.9837 170.117 92.7129 168.93 92.7129 167.36C92.7129 165.722 92.9774 164.516 93.5063 163.742C94.0353 162.963 94.8499 162.574 95.9502 162.574C97.0208 162.574 97.8291 162.98 98.375 163.792C98.9251 164.605 99.2002 165.794 99.2002 167.36ZM94.6616 167.36C94.6616 168.498 94.759 169.315 94.9536 169.81C95.1525 170.301 95.4847 170.546 95.9502 170.546C96.4072 170.546 96.7373 170.297 96.9404 169.797C97.1436 169.298 97.2451 168.486 97.2451 167.36C97.2451 166.222 97.1414 165.405 96.9341 164.91C96.731 164.41 96.403 164.161 95.9502 164.161C95.4889 164.161 95.1589 164.41 94.96 164.91C94.7611 165.405 94.6616 166.222 94.6616 167.36ZM106.627 167.36C106.627 168.981 106.36 170.18 105.827 170.959C105.298 171.738 104.481 172.127 103.377 172.127C102.306 172.127 101.498 171.725 100.952 170.921C100.41 170.117 100.14 168.93 100.14 167.36C100.14 165.722 100.404 164.516 100.933 163.742C101.462 162.963 102.277 162.574 103.377 162.574C104.448 162.574 105.256 162.98 105.802 163.792C106.352 164.605 106.627 165.794 106.627 167.36ZM102.088 167.36C102.088 168.498 102.186 169.315 102.38 169.81C102.579 170.301 102.911 170.546 103.377 170.546C103.834 170.546 104.164 170.297 104.367 169.797C104.57 169.298 104.672 168.486 104.672 167.36C104.672 166.222 104.568 165.405 104.361 164.91C104.158 164.41 103.83 164.161 103.377 164.161C102.916 164.161 102.586 164.41 102.387 164.91C102.188 165.405 102.088 166.222 102.088 167.36ZM107.839 171.092C107.839 170.737 107.935 170.468 108.125 170.286C108.315 170.104 108.593 170.013 108.957 170.013C109.308 170.013 109.579 170.106 109.769 170.292C109.964 170.479 110.061 170.745 110.061 171.092C110.061 171.427 109.964 171.691 109.769 171.886C109.574 172.076 109.304 172.171 108.957 172.171C108.601 172.171 108.326 172.078 108.131 171.892C107.937 171.702 107.839 171.435 107.839 171.092ZM117.761 167.36C117.761 168.981 117.494 170.18 116.961 170.959C116.432 171.738 115.615 172.127 114.511 172.127C113.44 172.127 112.632 171.725 112.086 170.921C111.544 170.117 111.273 168.93 111.273 167.36C111.273 165.722 111.538 164.516 112.067 163.742C112.596 162.963 113.41 162.574 114.511 162.574C115.581 162.574 116.39 162.98 116.936 163.792C117.486 164.605 117.761 165.794 117.761 167.36ZM113.222 167.36C113.222 168.498 113.319 169.315 113.514 169.81C113.713 170.301 114.045 170.546 114.511 170.546C114.968 170.546 115.298 170.297 115.501 169.797C115.704 169.298 115.806 168.486 115.806 167.36C115.806 166.222 115.702 165.405 115.495 164.91C115.292 164.41 114.964 164.161 114.511 164.161C114.049 164.161 113.719 164.41 113.521 164.91C113.322 165.405 113.222 166.222 113.222 167.36ZM125.188 167.36C125.188 168.981 124.921 170.18 124.388 170.959C123.859 171.738 123.042 172.127 121.938 172.127C120.867 172.127 120.059 171.725 119.513 170.921C118.971 170.117 118.7 168.93 118.7 167.36C118.7 165.722 118.965 164.516 119.494 163.742C120.023 162.963 120.837 162.574 121.938 162.574C123.008 162.574 123.816 162.98 124.362 163.792C124.912 164.605 125.188 165.794 125.188 167.36ZM120.649 167.36C120.649 168.498 120.746 169.315 120.941 169.81C121.14 170.301 121.472 170.546 121.938 170.546C122.395 170.546 122.725 170.297 122.928 169.797C123.131 169.298 123.232 168.486 123.232 167.36C123.232 166.222 123.129 165.405 122.921 164.91C122.718 164.41 122.39 164.161 121.938 164.161C121.476 164.161 121.146 164.41 120.947 164.91C120.748 165.405 120.649 166.222 120.649 167.36ZM79.0972 204.224C78.5809 204.224 78.1556 204.374 77.8213 204.675C77.487 204.971 77.2712 205.403 77.1738 205.97H79.7319V207.087H77.0786L77.0659 207.309V207.607L77.0786 207.817H79.332V208.947H77.1865C77.4023 209.975 78.0815 210.489 79.2241 210.489C79.8293 210.489 80.4111 210.369 80.9697 210.127V211.752C80.4788 212.002 79.8589 212.127 79.1099 212.127C78.0731 212.127 77.2204 211.846 76.5518 211.283C75.8831 210.72 75.4621 209.941 75.2886 208.947H74.4189V207.817H75.168C75.151 207.72 75.1426 207.588 75.1426 207.423L75.1553 207.087H74.4189V205.97H75.2632C75.4198 204.946 75.8408 204.137 76.5264 203.545C77.2119 202.948 78.0688 202.65 79.0972 202.65C79.8927 202.65 80.6375 202.823 81.3315 203.17L80.7095 204.643C80.4175 204.512 80.1445 204.41 79.8906 204.338C79.6367 204.262 79.3722 204.224 79.0972 204.224ZM91.7734 206.681C91.7734 208.509 91.3883 209.874 90.6182 210.775C89.848 211.676 88.6821 212.127 87.1206 212.127C86.5705 212.127 86.1536 212.097 85.8701 212.038V210.464C86.2256 210.553 86.598 210.597 86.9873 210.597C87.6432 210.597 88.1828 210.502 88.606 210.312C89.0291 210.117 89.3529 209.814 89.5771 209.404C89.8014 208.989 89.9305 208.42 89.9644 207.696H89.8882C89.6427 208.094 89.3592 208.373 89.0376 208.534C88.716 208.695 88.314 208.775 87.8315 208.775C87.0233 208.775 86.3864 208.517 85.9209 208.001C85.4554 207.48 85.2227 206.759 85.2227 205.836C85.2227 204.842 85.5041 204.057 86.0669 203.481C86.634 202.902 87.4041 202.612 88.3774 202.612C89.063 202.612 89.6618 202.773 90.1738 203.094C90.6901 203.416 91.0858 203.883 91.3608 204.497C91.6359 205.106 91.7734 205.834 91.7734 206.681ZM88.4155 204.186C88.0093 204.186 87.6919 204.326 87.4634 204.605C87.2349 204.884 87.1206 205.286 87.1206 205.811C87.1206 206.26 87.2243 206.615 87.4316 206.877C87.639 207.14 87.9543 207.271 88.3774 207.271C88.7752 207.271 89.1159 207.142 89.3994 206.884C89.6829 206.621 89.8247 206.321 89.8247 205.982C89.8247 205.479 89.6914 205.054 89.4248 204.707C89.1624 204.36 88.826 204.186 88.4155 204.186ZM99.2002 206.681C99.2002 208.509 98.8151 209.874 98.0449 210.775C97.2747 211.676 96.1089 212.127 94.5474 212.127C93.9972 212.127 93.5804 212.097 93.2969 212.038V210.464C93.6523 210.553 94.0247 210.597 94.4141 210.597C95.07 210.597 95.6095 210.502 96.0327 210.312C96.4559 210.117 96.7796 209.814 97.0039 209.404C97.2282 208.989 97.3573 208.42 97.3911 207.696H97.3149C97.0695 208.094 96.786 208.373 96.4644 208.534C96.1427 208.695 95.7407 208.775 95.2583 208.775C94.45 208.775 93.8132 208.517 93.3477 208.001C92.8822 207.48 92.6494 206.759 92.6494 205.836C92.6494 204.842 92.9308 204.057 93.4937 203.481C94.0607 202.902 94.8309 202.612 95.8042 202.612C96.4897 202.612 97.0885 202.773 97.6006 203.094C98.1169 203.416 98.5125 203.883 98.7876 204.497C99.0627 205.106 99.2002 205.834 99.2002 206.681ZM95.8423 204.186C95.436 204.186 95.1187 204.326 94.8901 204.605C94.6616 204.884 94.5474 205.286 94.5474 205.811C94.5474 206.26 94.651 206.615 94.8584 206.877C95.0658 207.14 95.381 207.271 95.8042 207.271C96.202 207.271 96.5426 207.142 96.8262 206.884C97.1097 206.621 97.2515 206.321 97.2515 205.982C97.2515 205.479 97.1182 205.054 96.8516 204.707C96.5892 204.36 96.2528 204.186 95.8423 204.186ZM100.4 211.092C100.4 210.737 100.495 210.468 100.686 210.286C100.876 210.104 101.153 210.013 101.517 210.013C101.868 210.013 102.139 210.106 102.33 210.292C102.524 210.479 102.622 210.745 102.622 211.092C102.622 211.427 102.524 211.691 102.33 211.886C102.135 212.076 101.864 212.171 101.517 212.171C101.162 212.171 100.887 212.078 100.692 211.892C100.497 211.702 100.4 211.435 100.4 211.092ZM110.334 206.681C110.334 208.509 109.949 209.874 109.179 210.775C108.409 211.676 107.243 212.127 105.681 212.127C105.131 212.127 104.714 212.097 104.431 212.038V210.464C104.786 210.553 105.159 210.597 105.548 210.597C106.204 210.597 106.743 210.502 107.167 210.312C107.59 210.117 107.913 209.814 108.138 209.404C108.362 208.989 108.491 208.42 108.525 207.696H108.449C108.203 208.094 107.92 208.373 107.598 208.534C107.277 208.695 106.875 208.775 106.392 208.775C105.584 208.775 104.947 208.517 104.481 208.001C104.016 207.48 103.783 206.759 103.783 205.836C103.783 204.842 104.065 204.057 104.627 203.481C105.194 202.902 105.965 202.612 106.938 202.612C107.624 202.612 108.222 202.773 108.734 203.094C109.251 203.416 109.646 203.883 109.921 204.497C110.196 205.106 110.334 205.834 110.334 206.681ZM106.976 204.186C106.57 204.186 106.252 204.326 106.024 204.605C105.795 204.884 105.681 205.286 105.681 205.811C105.681 206.26 105.785 206.615 105.992 206.877C106.2 207.14 106.515 207.271 106.938 207.271C107.336 207.271 107.676 207.142 107.96 206.884C108.243 206.621 108.385 206.321 108.385 205.982C108.385 205.479 108.252 205.054 107.985 204.707C107.723 204.36 107.387 204.186 106.976 204.186ZM117.761 206.681C117.761 208.509 117.376 209.874 116.605 210.775C115.835 211.676 114.669 212.127 113.108 212.127C112.558 212.127 112.141 212.097 111.857 212.038V210.464C112.213 210.553 112.585 210.597 112.975 210.597C113.631 210.597 114.17 210.502 114.593 210.312C115.016 210.117 115.34 209.814 115.564 209.404C115.789 208.989 115.918 208.42 115.952 207.696H115.875C115.63 208.094 115.347 208.373 115.025 208.534C114.703 208.695 114.301 208.775 113.819 208.775C113.011 208.775 112.374 208.517 111.908 208.001C111.443 207.48 111.21 206.759 111.21 205.836C111.21 204.842 111.491 204.057 112.054 203.481C112.621 202.902 113.391 202.612 114.365 202.612C115.05 202.612 115.649 202.773 116.161 203.094C116.677 203.416 117.073 203.883 117.348 204.497C117.623 205.106 117.761 205.834 117.761 206.681ZM114.403 204.186C113.997 204.186 113.679 204.326 113.451 204.605C113.222 204.884 113.108 205.286 113.108 205.811C113.108 206.26 113.212 206.615 113.419 206.877C113.626 207.14 113.942 207.271 114.365 207.271C114.763 207.271 115.103 207.142 115.387 206.884C115.67 206.621 115.812 206.321 115.812 205.982C115.812 205.479 115.679 205.054 115.412 204.707C115.15 204.36 114.813 204.186 114.403 204.186Z" fill="#1249BE"/>
<path d="M268.547 181H267.416L263.121 174.426V181H261.99V172.469H263.121L267.428 179.072V172.469H268.547V181ZM273.006 181.117C272.146 181.117 271.447 180.836 270.908 180.273C270.369 179.707 270.1 178.951 270.1 178.006V177.807C270.1 177.178 270.219 176.617 270.457 176.125C270.699 175.629 271.035 175.242 271.465 174.965C271.898 174.684 272.367 174.543 272.871 174.543C273.695 174.543 274.336 174.814 274.793 175.357C275.25 175.9 275.479 176.678 275.479 177.689V178.141H271.184C271.199 178.766 271.381 179.271 271.729 179.658C272.08 180.041 272.525 180.232 273.064 180.232C273.447 180.232 273.771 180.154 274.037 179.998C274.303 179.842 274.535 179.635 274.734 179.377L275.396 179.893C274.865 180.709 274.068 181.117 273.006 181.117ZM272.871 175.434C272.434 175.434 272.066 175.594 271.77 175.914C271.473 176.23 271.289 176.676 271.219 177.25H274.395V177.168C274.363 176.617 274.215 176.191 273.949 175.891C273.684 175.586 273.324 175.434 272.871 175.434ZM278.209 173.125V174.66H279.393V175.498H278.209V179.43C278.209 179.684 278.262 179.875 278.367 180.004C278.473 180.129 278.652 180.191 278.906 180.191C279.031 180.191 279.203 180.168 279.422 180.121V181C279.137 181.078 278.859 181.117 278.59 181.117C278.105 181.117 277.74 180.971 277.494 180.678C277.248 180.385 277.125 179.969 277.125 179.43V175.498H275.971V174.66H277.125V173.125H278.209ZM284.625 172.92C284.141 172.842 283.75 172.803 283.453 172.803C282.672 172.803 282.281 173.213 282.281 174.033V174.66H283.635V175.498H282.281V181H281.197V175.498H280.195V174.66H281.197V173.969C281.201 173.293 281.391 172.775 281.766 172.416C282.141 172.057 282.674 171.877 283.365 171.877C283.76 171.877 284.541 171.996 285.709 172.234V181H284.625V172.92ZM288.662 181H287.578V174.66H288.662V181ZM287.49 172.979C287.49 172.803 287.543 172.654 287.648 172.533C287.758 172.412 287.918 172.352 288.129 172.352C288.34 172.352 288.5 172.412 288.609 172.533C288.719 172.654 288.773 172.803 288.773 172.979C288.773 173.154 288.719 173.301 288.609 173.418C288.5 173.535 288.34 173.594 288.129 173.594C287.918 173.594 287.758 173.535 287.648 173.418C287.543 173.301 287.49 173.154 287.49 172.979ZM292.529 176.975L293.936 174.66H295.201L293.127 177.795L295.266 181H294.012L292.547 178.627L291.082 181H289.822L291.961 177.795L289.887 174.66H291.141L292.529 176.975ZM261.99 223V214.469H264.398C265.141 214.469 265.797 214.633 266.367 214.961C266.938 215.289 267.377 215.756 267.686 216.361C267.998 216.967 268.156 217.662 268.16 218.447V218.992C268.16 219.797 268.004 220.502 267.691 221.107C267.383 221.713 266.939 222.178 266.361 222.502C265.787 222.826 265.117 222.992 264.352 223H261.99ZM263.115 215.395V222.08H264.299C265.166 222.08 265.84 221.811 266.32 221.271C266.805 220.732 267.047 219.965 267.047 218.969V218.471C267.047 217.502 266.818 216.75 266.361 216.215C265.908 215.676 265.264 215.402 264.428 215.395H263.115ZM272.326 223.117C271.467 223.117 270.768 222.836 270.229 222.273C269.689 221.707 269.42 220.951 269.42 220.006V219.807C269.42 219.178 269.539 218.617 269.777 218.125C270.02 217.629 270.355 217.242 270.785 216.965C271.219 216.684 271.688 216.543 272.191 216.543C273.016 216.543 273.656 216.814 274.113 217.357C274.57 217.9 274.799 218.678 274.799 219.689V220.141H270.504C270.52 220.766 270.701 221.271 271.049 221.658C271.4 222.041 271.846 222.232 272.385 222.232C272.768 222.232 273.092 222.154 273.357 221.998C273.623 221.842 273.855 221.635 274.055 221.377L274.717 221.893C274.186 222.709 273.389 223.117 272.326 223.117ZM272.191 217.434C271.754 217.434 271.387 217.594 271.09 217.914C270.793 218.23 270.609 218.676 270.539 219.25H273.715V219.168C273.684 218.617 273.535 218.191 273.27 217.891C273.004 217.586 272.645 217.434 272.191 217.434ZM278.689 223.117C277.83 223.117 277.131 222.836 276.592 222.273C276.053 221.707 275.783 220.951 275.783 220.006V219.807C275.783 219.178 275.902 218.617 276.141 218.125C276.383 217.629 276.719 217.242 277.148 216.965C277.582 216.684 278.051 216.543 278.555 216.543C279.379 216.543 280.02 216.814 280.477 217.357C280.934 217.9 281.162 218.678 281.162 219.689V220.141H276.867C276.883 220.766 277.064 221.271 277.412 221.658C277.764 222.041 278.209 222.232 278.748 222.232C279.131 222.232 279.455 222.154 279.721 221.998C279.986 221.842 280.219 221.635 280.418 221.377L281.08 221.893C280.549 222.709 279.752 223.117 278.689 223.117ZM278.555 217.434C278.117 217.434 277.75 217.594 277.453 217.914C277.156 218.23 276.973 218.676 276.902 219.25H280.078V219.168C280.047 218.617 279.898 218.191 279.633 217.891C279.367 217.586 279.008 217.434 278.555 217.434ZM283.441 222.115H287.15V223H282.117V222.203L285.615 217.557H282.17V216.66H286.975V217.428L283.441 222.115ZM290.912 223.117C290.053 223.117 289.354 222.836 288.814 222.273C288.275 221.707 288.006 220.951 288.006 220.006V219.807C288.006 219.178 288.125 218.617 288.363 218.125C288.605 217.629 288.941 217.242 289.371 216.965C289.805 216.684 290.273 216.543 290.777 216.543C291.602 216.543 292.242 216.814 292.699 217.357C293.156 217.9 293.385 218.678 293.385 219.689V220.141H289.09C289.105 220.766 289.287 221.271 289.635 221.658C289.986 222.041 290.432 222.232 290.971 222.232C291.354 222.232 291.678 222.154 291.943 221.998C292.209 221.842 292.441 221.635 292.641 221.377L293.303 221.893C292.771 222.709 291.975 223.117 290.912 223.117ZM290.777 217.434C290.34 217.434 289.973 217.594 289.676 217.914C289.379 218.23 289.195 218.676 289.125 219.25H292.301V219.168C292.27 218.617 292.121 218.191 291.855 217.891C291.59 217.586 291.23 217.434 290.777 217.434ZM297.709 217.633C297.545 217.605 297.367 217.592 297.176 217.592C296.465 217.592 295.982 217.895 295.729 218.5V223H294.645V216.66H295.699L295.717 217.393C296.072 216.826 296.576 216.543 297.229 216.543C297.439 216.543 297.6 216.57 297.709 216.625V217.633ZM266.701 262.773H263.127L262.324 265H261.164L264.422 256.469H265.406L268.67 265H267.516L266.701 262.773ZM263.467 261.848H266.367L264.914 257.857L263.467 261.848ZM275.004 261.9C275.004 262.865 274.783 263.643 274.342 264.232C273.9 264.822 273.303 265.117 272.549 265.117C271.779 265.117 271.174 264.873 270.732 264.385V267.438H269.648V258.66H270.639L270.691 259.363C271.133 258.816 271.746 258.543 272.531 258.543C273.293 258.543 273.895 258.83 274.336 259.404C274.781 259.979 275.004 260.777 275.004 261.801V261.9ZM273.92 261.777C273.92 261.062 273.768 260.498 273.463 260.084C273.158 259.67 272.74 259.463 272.209 259.463C271.553 259.463 271.061 259.754 270.732 260.336V263.365C271.057 263.943 271.553 264.232 272.221 264.232C272.74 264.232 273.152 264.027 273.457 263.617C273.766 263.203 273.92 262.59 273.92 261.777ZM281.742 261.9C281.742 262.865 281.521 263.643 281.08 264.232C280.639 264.822 280.041 265.117 279.287 265.117C278.518 265.117 277.912 264.873 277.471 264.385V267.438H276.387V258.66H277.377L277.43 259.363C277.871 258.816 278.484 258.543 279.27 258.543C280.031 258.543 280.633 258.83 281.074 259.404C281.52 259.979 281.742 260.777 281.742 261.801V261.9ZM280.658 261.777C280.658 261.062 280.506 260.498 280.201 260.084C279.896 259.67 279.479 259.463 278.947 259.463C278.291 259.463 277.799 259.754 277.471 260.336V263.365C277.795 263.943 278.291 264.232 278.959 264.232C279.479 264.232 279.891 264.027 280.195 263.617C280.504 263.203 280.658 262.59 280.658 261.777ZM284.303 265H283.219V256H284.303V265ZM288.674 265.117C287.814 265.117 287.115 264.836 286.576 264.273C286.037 263.707 285.768 262.951 285.768 262.006V261.807C285.768 261.178 285.887 260.617 286.125 260.125C286.367 259.629 286.703 259.242 287.133 258.965C287.566 258.684 288.035 258.543 288.539 258.543C289.363 258.543 290.004 258.814 290.461 259.357C290.918 259.9 291.146 260.678 291.146 261.689V262.141H286.852C286.867 262.766 287.049 263.271 287.396 263.658C287.748 264.041 288.193 264.232 288.732 264.232C289.115 264.232 289.439 264.154 289.705 263.998C289.971 263.842 290.203 263.635 290.402 263.377L291.064 263.893C290.533 264.709 289.736 265.117 288.674 265.117ZM288.539 259.434C288.102 259.434 287.734 259.594 287.438 259.914C287.141 260.23 286.957 260.676 286.887 261.25H290.062V261.168C290.031 260.617 289.883 260.191 289.617 259.891C289.352 259.586 288.992 259.434 288.539 259.434ZM297.006 256.469L299.795 263.43L302.584 256.469H304.043V265H302.918V261.678L303.023 258.092L300.223 265H299.361L296.566 258.109L296.678 261.678V265H295.553V256.469H297.006ZM309.773 264.373C309.352 264.869 308.732 265.117 307.916 265.117C307.24 265.117 306.725 264.922 306.369 264.531C306.018 264.137 305.84 263.555 305.836 262.785V258.66H306.92V262.756C306.92 263.717 307.311 264.197 308.092 264.197C308.92 264.197 309.471 263.889 309.744 263.271V258.66H310.828V265H309.797L309.773 264.373ZM316.172 263.318C316.172 263.025 316.061 262.799 315.838 262.639C315.619 262.475 315.234 262.334 314.684 262.217C314.137 262.1 313.701 261.959 313.377 261.795C313.057 261.631 312.818 261.436 312.662 261.209C312.51 260.982 312.434 260.713 312.434 260.4C312.434 259.881 312.652 259.441 313.09 259.082C313.531 258.723 314.094 258.543 314.777 258.543C315.496 258.543 316.078 258.729 316.523 259.1C316.973 259.471 317.197 259.945 317.197 260.523H316.107C316.107 260.227 315.98 259.971 315.727 259.756C315.477 259.541 315.16 259.434 314.777 259.434C314.383 259.434 314.074 259.52 313.852 259.691C313.629 259.863 313.518 260.088 313.518 260.365C313.518 260.627 313.621 260.824 313.828 260.957C314.035 261.09 314.408 261.217 314.947 261.338C315.49 261.459 315.93 261.604 316.266 261.771C316.602 261.939 316.85 262.143 317.01 262.381C317.174 262.615 317.256 262.902 317.256 263.242C317.256 263.809 317.029 264.264 316.576 264.607C316.123 264.947 315.535 265.117 314.812 265.117C314.305 265.117 313.855 265.027 313.465 264.848C313.074 264.668 312.768 264.418 312.545 264.098C312.326 263.773 312.217 263.424 312.217 263.049H313.301C313.32 263.412 313.465 263.701 313.734 263.916C314.008 264.127 314.367 264.232 314.812 264.232C315.223 264.232 315.551 264.15 315.797 263.986C316.047 263.818 316.172 263.596 316.172 263.318ZM319.846 265H318.762V258.66H319.846V265ZM318.674 256.979C318.674 256.803 318.727 256.654 318.832 256.533C318.941 256.412 319.102 256.352 319.312 256.352C319.523 256.352 319.684 256.412 319.793 256.533C319.902 256.654 319.957 256.803 319.957 256.979C319.957 257.154 319.902 257.301 319.793 257.418C319.684 257.535 319.523 257.594 319.312 257.594C319.102 257.594 318.941 257.535 318.832 257.418C318.727 257.301 318.674 257.154 318.674 256.979ZM324.129 264.232C324.516 264.232 324.854 264.115 325.143 263.881C325.432 263.646 325.592 263.354 325.623 263.002H326.648C326.629 263.365 326.504 263.711 326.273 264.039C326.043 264.367 325.734 264.629 325.348 264.824C324.965 265.02 324.559 265.117 324.129 265.117C323.266 265.117 322.578 264.83 322.066 264.256C321.559 263.678 321.305 262.889 321.305 261.889V261.707C321.305 261.09 321.418 260.541 321.645 260.061C321.871 259.58 322.195 259.207 322.617 258.941C323.043 258.676 323.545 258.543 324.123 258.543C324.834 258.543 325.424 258.756 325.893 259.182C326.365 259.607 326.617 260.16 326.648 260.84H325.623C325.592 260.43 325.436 260.094 325.154 259.832C324.877 259.566 324.533 259.434 324.123 259.434C323.572 259.434 323.145 259.633 322.84 260.031C322.539 260.426 322.389 260.998 322.389 261.748V261.953C322.389 262.684 322.539 263.246 322.84 263.641C323.141 264.035 323.57 264.232 324.129 264.232ZM263.197 307H262.072V298.469H263.197V307ZM265.26 307V298.469H268.049C268.975 298.469 269.67 298.66 270.135 299.043C270.604 299.426 270.838 299.992 270.838 300.742C270.838 301.141 270.725 301.494 270.498 301.803C270.271 302.107 269.963 302.344 269.572 302.512C270.033 302.641 270.396 302.887 270.662 303.25C270.932 303.609 271.066 304.039 271.066 304.539C271.066 305.305 270.818 305.906 270.322 306.344C269.826 306.781 269.125 307 268.219 307H265.26ZM266.385 303.01V306.08H268.242C268.766 306.08 269.178 305.945 269.479 305.676C269.783 305.402 269.936 305.027 269.936 304.551C269.936 303.523 269.377 303.01 268.26 303.01H266.385ZM266.385 302.107H268.084C268.576 302.107 268.969 301.984 269.262 301.738C269.559 301.492 269.707 301.158 269.707 300.736C269.707 300.268 269.57 299.928 269.297 299.717C269.023 299.502 268.607 299.395 268.049 299.395H266.385V302.107ZM277.559 303.057H273.861V306.08H278.156V307H272.736V298.469H278.098V299.395H273.861V302.137H277.559V303.057ZM279.557 307V298.469H281.965C282.707 298.469 283.363 298.633 283.934 298.961C284.504 299.289 284.943 299.756 285.252 300.361C285.564 300.967 285.723 301.662 285.727 302.447V302.992C285.727 303.797 285.57 304.502 285.258 305.107C284.949 305.713 284.506 306.178 283.928 306.502C283.354 306.826 282.684 306.992 281.918 307H279.557ZM280.682 299.395V306.08H281.865C282.732 306.08 283.406 305.811 283.887 305.271C284.371 304.732 284.613 303.965 284.613 302.969V302.471C284.613 301.502 284.385 300.75 283.928 300.215C283.475 299.676 282.83 299.402 281.994 299.395H280.682ZM293.707 304.293C293.602 305.195 293.268 305.893 292.705 306.385C292.146 306.873 291.402 307.117 290.473 307.117C289.465 307.117 288.656 306.756 288.047 306.033C287.441 305.311 287.139 304.344 287.139 303.133V302.312C287.139 301.52 287.279 300.822 287.561 300.221C287.846 299.619 288.248 299.158 288.768 298.838C289.287 298.514 289.889 298.352 290.572 298.352C291.479 298.352 292.205 298.605 292.752 299.113C293.299 299.617 293.617 300.316 293.707 301.211H292.576C292.479 300.531 292.266 300.039 291.938 299.734C291.613 299.43 291.158 299.277 290.572 299.277C289.854 299.277 289.289 299.543 288.879 300.074C288.473 300.605 288.27 301.361 288.27 302.342V303.168C288.27 304.094 288.463 304.83 288.85 305.377C289.236 305.924 289.777 306.197 290.473 306.197C291.098 306.197 291.576 306.057 291.908 305.775C292.244 305.49 292.467 304.996 292.576 304.293H293.707ZM301.201 307V298.469H303.99C304.916 298.469 305.611 298.66 306.076 299.043C306.545 299.426 306.779 299.992 306.779 300.742C306.779 301.141 306.666 301.494 306.439 301.803C306.213 302.107 305.904 302.344 305.514 302.512C305.975 302.641 306.338 302.887 306.604 303.25C306.873 303.609 307.008 304.039 307.008 304.539C307.008 305.305 306.76 305.906 306.264 306.344C305.768 306.781 305.066 307 304.16 307H301.201ZM302.326 303.01V306.08H304.184C304.707 306.08 305.119 305.945 305.42 305.676C305.725 305.402 305.877 305.027 305.877 304.551C305.877 303.523 305.318 303.01 304.201 303.01H302.326ZM302.326 302.107H304.025C304.518 302.107 304.91 301.984 305.203 301.738C305.5 301.492 305.648 301.158 305.648 300.736C305.648 300.268 305.512 299.928 305.238 299.717C304.965 299.502 304.549 299.395 303.99 299.395H302.326V302.107ZM309.686 307H308.602V300.66H309.686V307ZM308.514 298.979C308.514 298.803 308.566 298.654 308.672 298.533C308.781 298.412 308.941 298.352 309.152 298.352C309.363 298.352 309.523 298.412 309.633 298.533C309.742 298.654 309.797 298.803 309.797 298.979C309.797 299.154 309.742 299.301 309.633 299.418C309.523 299.535 309.363 299.594 309.152 299.594C308.941 299.594 308.781 299.535 308.672 299.418C308.566 299.301 308.514 299.154 308.514 298.979ZM312.604 307H311.52V298H312.604V307ZM315.521 307H314.438V298H315.521V307ZM320.953 305.318C320.953 305.025 320.842 304.799 320.619 304.639C320.4 304.475 320.016 304.334 319.465 304.217C318.918 304.1 318.482 303.959 318.158 303.795C317.838 303.631 317.6 303.436 317.443 303.209C317.291 302.982 317.215 302.713 317.215 302.4C317.215 301.881 317.434 301.441 317.871 301.082C318.312 300.723 318.875 300.543 319.559 300.543C320.277 300.543 320.859 300.729 321.305 301.1C321.754 301.471 321.979 301.945 321.979 302.523H320.889C320.889 302.227 320.762 301.971 320.508 301.756C320.258 301.541 319.941 301.434 319.559 301.434C319.164 301.434 318.855 301.52 318.633 301.691C318.41 301.863 318.299 302.088 318.299 302.365C318.299 302.627 318.402 302.824 318.609 302.957C318.816 303.09 319.189 303.217 319.729 303.338C320.271 303.459 320.711 303.604 321.047 303.771C321.383 303.939 321.631 304.143 321.791 304.381C321.955 304.615 322.037 304.902 322.037 305.242C322.037 305.809 321.811 306.264 321.357 306.607C320.904 306.947 320.316 307.117 319.594 307.117C319.086 307.117 318.637 307.027 318.246 306.848C317.855 306.668 317.549 306.418 317.326 306.098C317.107 305.773 316.998 305.424 316.998 305.049H318.082C318.102 305.412 318.246 305.701 318.516 305.916C318.789 306.127 319.148 306.232 319.594 306.232C320.004 306.232 320.332 306.15 320.578 305.986C320.828 305.818 320.953 305.596 320.953 305.318ZM261.99 349V340.469H264.398C265.141 340.469 265.797 340.633 266.367 340.961C266.938 341.289 267.377 341.756 267.686 342.361C267.998 342.967 268.156 343.662 268.16 344.447V344.992C268.16 345.797 268.004 346.502 267.691 347.107C267.383 347.713 266.939 348.178 266.361 348.502C265.787 348.826 265.117 348.992 264.352 349H261.99ZM263.115 341.395V348.08H264.299C265.166 348.08 265.84 347.811 266.32 347.271C266.805 346.732 267.047 345.965 267.047 344.969V344.471C267.047 343.502 266.818 342.75 266.361 342.215C265.908 341.676 265.264 341.402 264.428 341.395H263.115ZM272.379 345.197C271.414 344.92 270.711 344.58 270.27 344.178C269.832 343.771 269.613 343.271 269.613 342.678C269.613 342.006 269.881 341.451 270.416 341.014C270.955 340.572 271.654 340.352 272.514 340.352C273.1 340.352 273.621 340.465 274.078 340.691C274.539 340.918 274.895 341.23 275.145 341.629C275.398 342.027 275.525 342.463 275.525 342.936H274.395C274.395 342.42 274.23 342.016 273.902 341.723C273.574 341.426 273.111 341.277 272.514 341.277C271.959 341.277 271.525 341.4 271.213 341.646C270.904 341.889 270.75 342.227 270.75 342.66C270.75 343.008 270.896 343.303 271.189 343.545C271.486 343.783 271.988 344.002 272.695 344.201C273.406 344.4 273.961 344.621 274.359 344.863C274.762 345.102 275.059 345.381 275.25 345.701C275.445 346.021 275.543 346.398 275.543 346.832C275.543 347.523 275.273 348.078 274.734 348.496C274.195 348.91 273.475 349.117 272.572 349.117C271.986 349.117 271.439 349.006 270.932 348.783C270.424 348.557 270.031 348.248 269.754 347.857C269.48 347.467 269.344 347.023 269.344 346.527H270.475C270.475 347.043 270.664 347.451 271.043 347.752C271.426 348.049 271.936 348.197 272.572 348.197C273.166 348.197 273.621 348.076 273.938 347.834C274.254 347.592 274.412 347.262 274.412 346.844C274.412 346.426 274.266 346.104 273.973 345.877C273.68 345.646 273.148 345.42 272.379 345.197ZM282.885 341.395H280.143V349H279.023V341.395H276.287V340.469H282.885V341.395ZM287.068 347.506L289.506 340.469H290.736L287.572 349H286.576L283.418 340.469H284.643L287.068 347.506ZM294.861 349V340.469H297.65C298.576 340.469 299.271 340.66 299.736 341.043C300.205 341.426 300.439 341.992 300.439 342.742C300.439 343.141 300.326 343.494 300.1 343.803C299.873 344.107 299.564 344.344 299.174 344.512C299.635 344.641 299.998 344.887 300.264 345.25C300.533 345.609 300.668 346.039 300.668 346.539C300.668 347.305 300.42 347.906 299.924 348.344C299.428 348.781 298.727 349 297.82 349H294.861ZM295.986 345.01V348.08H297.844C298.367 348.08 298.779 347.945 299.08 347.676C299.385 347.402 299.537 347.027 299.537 346.551C299.537 345.523 298.979 345.01 297.861 345.01H295.986ZM295.986 344.107H297.686C298.178 344.107 298.57 343.984 298.863 343.738C299.16 343.492 299.309 343.158 299.309 342.736C299.309 342.268 299.172 341.928 298.898 341.717C298.625 341.502 298.209 341.395 297.65 341.395H295.986V344.107ZM303.346 349H302.262V342.66H303.346V349ZM302.174 340.979C302.174 340.803 302.227 340.654 302.332 340.533C302.441 340.412 302.602 340.352 302.812 340.352C303.023 340.352 303.184 340.412 303.293 340.533C303.402 340.654 303.457 340.803 303.457 340.979C303.457 341.154 303.402 341.301 303.293 341.418C303.184 341.535 303.023 341.594 302.812 341.594C302.602 341.594 302.441 341.535 302.332 341.418C302.227 341.301 302.174 341.154 302.174 340.979ZM306.264 349H305.18V340H306.264V349ZM309.182 349H308.098V340H309.182V349ZM314.613 347.318C314.613 347.025 314.502 346.799 314.279 346.639C314.061 346.475 313.676 346.334 313.125 346.217C312.578 346.1 312.143 345.959 311.818 345.795C311.498 345.631 311.26 345.436 311.104 345.209C310.951 344.982 310.875 344.713 310.875 344.4C310.875 343.881 311.094 343.441 311.531 343.082C311.973 342.723 312.535 342.543 313.219 342.543C313.938 342.543 314.52 342.729 314.965 343.1C315.414 343.471 315.639 343.945 315.639 344.523H314.549C314.549 344.227 314.422 343.971 314.168 343.756C313.918 343.541 313.602 343.434 313.219 343.434C312.824 343.434 312.516 343.52 312.293 343.691C312.07 343.863 311.959 344.088 311.959 344.365C311.959 344.627 312.062 344.824 312.27 344.957C312.477 345.09 312.85 345.217 313.389 345.338C313.932 345.459 314.371 345.604 314.707 345.771C315.043 345.939 315.291 346.143 315.451 346.381C315.615 346.615 315.697 346.902 315.697 347.242C315.697 347.809 315.471 348.264 315.018 348.607C314.564 348.947 313.977 349.117 313.254 349.117C312.746 349.117 312.297 349.027 311.906 348.848C311.516 348.668 311.209 348.418 310.986 348.098C310.768 347.773 310.658 347.424 310.658 347.049H311.742C311.762 347.412 311.906 347.701 312.176 347.916C312.449 348.127 312.809 348.232 313.254 348.232C313.664 348.232 313.992 348.15 314.238 347.986C314.488 347.818 314.613 347.596 314.613 347.318Z" fill="black"/>
<path d="M369.016 179.803C369.016 179.443 368.889 179.141 368.635 178.895C368.385 178.648 367.961 178.426 367.363 178.227C366.531 177.973 365.924 177.643 365.541 177.236C365.162 176.826 364.973 176.307 364.973 175.678C364.973 175.037 365.158 174.512 365.529 174.102C365.904 173.691 366.418 173.447 367.07 173.369V172.086H367.943V173.375C368.6 173.465 369.109 173.74 369.473 174.201C369.84 174.662 370.023 175.293 370.023 176.094H368.945C368.945 175.543 368.814 175.105 368.553 174.781C368.291 174.457 367.938 174.295 367.492 174.295C367.027 174.295 366.672 174.416 366.426 174.658C366.18 174.896 366.057 175.23 366.057 175.66C366.057 176.059 366.186 176.377 366.443 176.615C366.705 176.85 367.133 177.064 367.727 177.26C368.324 177.451 368.789 177.664 369.121 177.898C369.457 178.129 369.703 178.398 369.859 178.707C370.02 179.016 370.1 179.377 370.1 179.791C370.1 180.451 369.9 180.982 369.502 181.385C369.107 181.787 368.553 182.025 367.838 182.1V183.219H366.971V182.1C366.244 182.033 365.674 181.775 365.26 181.326C364.85 180.873 364.645 180.26 364.645 179.486H365.729C365.729 180.029 365.871 180.447 366.156 180.74C366.441 181.033 366.846 181.18 367.369 181.18C367.881 181.18 368.283 181.057 368.576 180.811C368.869 180.564 369.016 180.229 369.016 179.803ZM380.014 182H374.424V181.221L377.377 177.939C377.814 177.443 378.115 177.041 378.279 176.732C378.447 176.42 378.531 176.098 378.531 175.766C378.531 175.32 378.396 174.955 378.127 174.67C377.857 174.385 377.498 174.242 377.049 174.242C376.51 174.242 376.09 174.396 375.789 174.705C375.492 175.01 375.344 175.436 375.344 175.982H374.26C374.26 175.197 374.512 174.562 375.016 174.078C375.523 173.594 376.201 173.352 377.049 173.352C377.842 173.352 378.469 173.561 378.93 173.979C379.391 174.393 379.621 174.945 379.621 175.637C379.621 176.477 379.086 177.477 378.016 178.637L375.73 181.115H380.014V182ZM386.512 178.361C386.512 179.631 386.295 180.574 385.861 181.191C385.428 181.809 384.75 182.117 383.828 182.117C382.918 182.117 382.244 181.816 381.807 181.215C381.369 180.609 381.143 179.707 381.127 178.508V177.061C381.127 175.807 381.344 174.875 381.777 174.266C382.211 173.656 382.891 173.352 383.816 173.352C384.734 173.352 385.41 173.646 385.844 174.236C386.277 174.822 386.5 175.729 386.512 176.955V178.361ZM385.428 176.879C385.428 175.961 385.299 175.293 385.041 174.875C384.783 174.453 384.375 174.242 383.816 174.242C383.262 174.242 382.857 174.451 382.604 174.869C382.35 175.287 382.219 175.93 382.211 176.797V178.531C382.211 179.453 382.344 180.135 382.609 180.576C382.879 181.014 383.285 181.232 383.828 181.232C384.363 181.232 384.76 181.025 385.018 180.611C385.279 180.197 385.416 179.545 385.428 178.654V176.879ZM368.975 220.83H366.725C366.74 221.592 366.924 222.178 367.275 222.588C367.627 222.998 368.125 223.203 368.77 223.203C369.223 223.203 369.648 223.137 370.047 223.004L370.164 223.941C369.695 224.059 369.227 224.117 368.758 224.117C367.789 224.117 367.025 223.832 366.467 223.262C365.912 222.688 365.623 221.877 365.6 220.83H364.557V220.104H365.6V219.301H364.557V218.568H365.6C365.639 217.545 365.936 216.754 366.49 216.195C367.049 215.633 367.803 215.352 368.752 215.352C369.166 215.352 369.637 215.412 370.164 215.533L370.047 216.482C369.621 216.346 369.193 216.277 368.764 216.277C368.123 216.277 367.629 216.477 367.281 216.875C366.938 217.27 366.754 217.834 366.73 218.568H368.975V219.301H366.725V220.104H368.975V220.83ZM376 219.207H376.814C377.326 219.199 377.729 219.064 378.021 218.803C378.314 218.541 378.461 218.188 378.461 217.742C378.461 216.742 377.963 216.242 376.967 216.242C376.498 216.242 376.123 216.377 375.842 216.646C375.564 216.912 375.426 217.266 375.426 217.707H374.342C374.342 217.031 374.588 216.471 375.08 216.025C375.576 215.576 376.205 215.352 376.967 215.352C377.771 215.352 378.402 215.564 378.859 215.99C379.316 216.416 379.545 217.008 379.545 217.766C379.545 218.137 379.424 218.496 379.182 218.844C378.943 219.191 378.617 219.451 378.203 219.623C378.672 219.771 379.033 220.018 379.287 220.361C379.545 220.705 379.674 221.125 379.674 221.621C379.674 222.387 379.424 222.994 378.924 223.443C378.424 223.893 377.773 224.117 376.973 224.117C376.172 224.117 375.52 223.9 375.016 223.467C374.516 223.033 374.266 222.461 374.266 221.75H375.355C375.355 222.199 375.502 222.559 375.795 222.828C376.088 223.098 376.48 223.232 376.973 223.232C377.496 223.232 377.896 223.096 378.174 222.822C378.451 222.549 378.59 222.156 378.59 221.645C378.59 221.148 378.438 220.768 378.133 220.502C377.828 220.236 377.389 220.1 376.814 220.092H376V219.207ZM386.512 220.361C386.512 221.631 386.295 222.574 385.861 223.191C385.428 223.809 384.75 224.117 383.828 224.117C382.918 224.117 382.244 223.816 381.807 223.215C381.369 222.609 381.143 221.707 381.127 220.508V219.061C381.127 217.807 381.344 216.875 381.777 216.266C382.211 215.656 382.891 215.352 383.816 215.352C384.734 215.352 385.41 215.646 385.844 216.236C386.277 216.822 386.5 217.729 386.512 218.955V220.361ZM385.428 218.879C385.428 217.961 385.299 217.293 385.041 216.875C384.783 216.453 384.375 216.242 383.816 216.242C383.262 216.242 382.857 216.451 382.604 216.869C382.35 217.287 382.219 217.93 382.211 218.797V220.531C382.211 221.453 382.344 222.135 382.609 222.576C382.879 223.014 383.285 223.232 383.828 223.232C384.363 223.232 384.76 223.025 385.018 222.611C385.279 222.197 385.416 221.545 385.428 220.654V218.879ZM369.016 263.803C369.016 263.443 368.889 263.141 368.635 262.895C368.385 262.648 367.961 262.426 367.363 262.227C366.531 261.973 365.924 261.643 365.541 261.236C365.162 260.826 364.973 260.307 364.973 259.678C364.973 259.037 365.158 258.512 365.529 258.102C365.904 257.691 366.418 257.447 367.07 257.369V256.086H367.943V257.375C368.6 257.465 369.109 257.74 369.473 258.201C369.84 258.662 370.023 259.293 370.023 260.094H368.945C368.945 259.543 368.814 259.105 368.553 258.781C368.291 258.457 367.938 258.295 367.492 258.295C367.027 258.295 366.672 258.416 366.426 258.658C366.18 258.896 366.057 259.23 366.057 259.66C366.057 260.059 366.186 260.377 366.443 260.615C366.705 260.85 367.133 261.064 367.727 261.26C368.324 261.451 368.789 261.664 369.121 261.898C369.457 262.129 369.703 262.398 369.859 262.707C370.02 263.016 370.1 263.377 370.1 263.791C370.1 264.451 369.9 264.982 369.502 265.385C369.107 265.787 368.553 266.025 367.838 266.1V267.219H366.971V266.1C366.244 266.033 365.674 265.775 365.26 265.326C364.85 264.873 364.645 264.26 364.645 263.486H365.729C365.729 264.029 365.871 264.447 366.156 264.74C366.441 265.033 366.846 265.18 367.369 265.18C367.881 265.18 368.283 265.057 368.576 264.811C368.869 264.564 369.016 264.229 369.016 263.803ZM376 261.207H376.814C377.326 261.199 377.729 261.064 378.021 260.803C378.314 260.541 378.461 260.188 378.461 259.742C378.461 258.742 377.963 258.242 376.967 258.242C376.498 258.242 376.123 258.377 375.842 258.646C375.564 258.912 375.426 259.266 375.426 259.707H374.342C374.342 259.031 374.588 258.471 375.08 258.025C375.576 257.576 376.205 257.352 376.967 257.352C377.771 257.352 378.402 257.564 378.859 257.99C379.316 258.416 379.545 259.008 379.545 259.766C379.545 260.137 379.424 260.496 379.182 260.844C378.943 261.191 378.617 261.451 378.203 261.623C378.672 261.771 379.033 262.018 379.287 262.361C379.545 262.705 379.674 263.125 379.674 263.621C379.674 264.387 379.424 264.994 378.924 265.443C378.424 265.893 377.773 266.117 376.973 266.117C376.172 266.117 375.52 265.9 375.016 265.467C374.516 265.033 374.266 264.461 374.266 263.75H375.355C375.355 264.199 375.502 264.559 375.795 264.828C376.088 265.098 376.48 265.232 376.973 265.232C377.496 265.232 377.896 265.096 378.174 264.822C378.451 264.549 378.59 264.156 378.59 263.645C378.59 263.148 378.438 262.768 378.133 262.502C377.828 262.236 377.389 262.1 376.814 262.092H376V261.207ZM386.512 262.361C386.512 263.631 386.295 264.574 385.861 265.191C385.428 265.809 384.75 266.117 383.828 266.117C382.918 266.117 382.244 265.816 381.807 265.215C381.369 264.609 381.143 263.707 381.127 262.508V261.061C381.127 259.807 381.344 258.875 381.777 258.266C382.211 257.656 382.891 257.352 383.816 257.352C384.734 257.352 385.41 257.646 385.844 258.236C386.277 258.822 386.5 259.729 386.512 260.955V262.361ZM385.428 260.879C385.428 259.961 385.299 259.293 385.041 258.875C384.783 258.453 384.375 258.242 383.816 258.242C383.262 258.242 382.857 258.451 382.604 258.869C382.35 259.287 382.219 259.93 382.211 260.797V262.531C382.211 263.453 382.344 264.135 382.609 264.576C382.879 265.014 383.285 265.232 383.828 265.232C384.363 265.232 384.76 265.025 385.018 264.611C385.279 264.197 385.416 263.545 385.428 262.654V260.879ZM372.01 302.492H373.316V303.383H372.01V304.25H373.316V305.141H372.01V308H370.873L369.004 305.141H366.578V308H365.453V305.141H364.182V304.25H365.453V303.383H364.182V302.492H365.453V299.469H366.578L368.553 302.492H370.891V299.469H372.01V302.492ZM366.578 304.25H368.424L367.855 303.383H366.578V304.25ZM369.695 304.25H370.891V303.383H369.133L369.695 304.25ZM366.578 302.492H367.275L366.578 301.426V302.492ZM370.891 306.072V305.141H370.281L370.891 306.072ZM377.688 303.723L378.121 299.469H382.492V300.471H379.041L378.783 302.797C379.201 302.551 379.676 302.428 380.207 302.428C380.984 302.428 381.602 302.686 382.059 303.201C382.516 303.713 382.744 304.406 382.744 305.281C382.744 306.16 382.506 306.854 382.029 307.361C381.557 307.865 380.895 308.117 380.043 308.117C379.289 308.117 378.674 307.908 378.197 307.49C377.721 307.072 377.449 306.494 377.383 305.756H378.408C378.475 306.244 378.648 306.613 378.93 306.863C379.211 307.109 379.582 307.232 380.043 307.232C380.547 307.232 380.941 307.061 381.227 306.717C381.516 306.373 381.66 305.898 381.66 305.293C381.66 304.723 381.504 304.266 381.191 303.922C380.883 303.574 380.471 303.4 379.955 303.4C379.482 303.4 379.111 303.504 378.842 303.711L378.555 303.945L377.688 303.723ZM389.277 304.361C389.277 305.631 389.061 306.574 388.627 307.191C388.193 307.809 387.516 308.117 386.594 308.117C385.684 308.117 385.01 307.816 384.572 307.215C384.135 306.609 383.908 305.707 383.893 304.508V303.061C383.893 301.807 384.109 300.875 384.543 300.266C384.977 299.656 385.656 299.352 386.582 299.352C387.5 299.352 388.176 299.646 388.609 300.236C389.043 300.822 389.266 301.729 389.277 302.955V304.361ZM388.193 302.879C388.193 301.961 388.064 301.293 387.807 300.875C387.549 300.453 387.141 300.242 386.582 300.242C386.027 300.242 385.623 300.451 385.369 300.869C385.115 301.287 384.984 301.93 384.977 302.797V304.531C384.977 305.453 385.109 306.135 385.375 306.576C385.645 307.014 386.051 307.232 386.594 307.232C387.129 307.232 387.525 307.025 387.783 306.611C388.045 306.197 388.182 305.545 388.193 304.654V302.879ZM396.016 304.361C396.016 305.631 395.799 306.574 395.365 307.191C394.932 307.809 394.254 308.117 393.332 308.117C392.422 308.117 391.748 307.816 391.311 307.215C390.873 306.609 390.646 305.707 390.631 304.508V303.061C390.631 301.807 390.848 300.875 391.281 300.266C391.715 299.656 392.395 299.352 393.32 299.352C394.238 299.352 394.914 299.646 395.348 300.236C395.781 300.822 396.004 301.729 396.016 302.955V304.361ZM394.932 302.879C394.932 301.961 394.803 301.293 394.545 300.875C394.287 300.453 393.879 300.242 393.32 300.242C392.766 300.242 392.361 300.451 392.107 300.869C391.854 301.287 391.723 301.93 391.715 302.797V304.531C391.715 305.453 391.848 306.135 392.113 306.576C392.383 307.014 392.789 307.232 393.332 307.232C393.867 307.232 394.264 307.025 394.521 306.611C394.783 306.197 394.92 305.545 394.932 304.654V302.879ZM402.754 304.361C402.754 305.631 402.537 306.574 402.104 307.191C401.67 307.809 400.992 308.117 400.07 308.117C399.16 308.117 398.486 307.816 398.049 307.215C397.611 306.609 397.385 305.707 397.369 304.508V303.061C397.369 301.807 397.586 300.875 398.02 300.266C398.453 299.656 399.133 299.352 400.059 299.352C400.977 299.352 401.652 299.646 402.086 300.236C402.52 300.822 402.742 301.729 402.754 302.955V304.361ZM401.67 302.879C401.67 301.961 401.541 301.293 401.283 300.875C401.025 300.453 400.617 300.242 400.059 300.242C399.504 300.242 399.1 300.451 398.846 300.869C398.592 301.287 398.461 301.93 398.453 302.797V304.531C398.453 305.453 398.586 306.135 398.852 306.576C399.121 307.014 399.527 307.232 400.07 307.232C400.605 307.232 401.002 307.025 401.26 306.611C401.521 306.197 401.658 305.545 401.67 304.654V302.879ZM372.01 344.492H373.316V345.383H372.01V346.25H373.316V347.141H372.01V350H370.873L369.004 347.141H366.578V350H365.453V347.141H364.182V346.25H365.453V345.383H364.182V344.492H365.453V341.469H366.578L368.553 344.492H370.891V341.469H372.01V344.492ZM366.578 346.25H368.424L367.855 345.383H366.578V346.25ZM369.695 346.25H370.891V345.383H369.133L369.695 346.25ZM366.578 344.492H367.275L366.578 343.426V344.492ZM370.891 348.072V347.141H370.281L370.891 348.072ZM381.766 347.135H382.949V348.02H381.766V350H380.676V348.02H376.791V347.381L380.611 341.469H381.766V347.135ZM378.021 347.135H380.676V342.951L380.547 343.186L378.021 347.135ZM389.102 343.695C389.102 344.121 388.988 344.5 388.762 344.832C388.539 345.164 388.236 345.424 387.854 345.611C388.299 345.803 388.65 346.082 388.908 346.449C389.17 346.816 389.301 347.232 389.301 347.697C389.301 348.436 389.051 349.023 388.551 349.461C388.055 349.898 387.4 350.117 386.588 350.117C385.768 350.117 385.109 349.898 384.613 349.461C384.121 349.02 383.875 348.432 383.875 347.697C383.875 347.236 384 346.82 384.25 346.449C384.504 346.078 384.854 345.797 385.299 345.605C384.92 345.418 384.621 345.158 384.402 344.826C384.184 344.494 384.074 344.117 384.074 343.695C384.074 342.977 384.305 342.406 384.766 341.984C385.227 341.562 385.834 341.352 386.588 341.352C387.338 341.352 387.943 341.562 388.404 341.984C388.869 342.406 389.102 342.977 389.102 343.695ZM388.217 347.674C388.217 347.197 388.064 346.809 387.76 346.508C387.459 346.207 387.064 346.057 386.576 346.057C386.088 346.057 385.695 346.205 385.398 346.502C385.105 346.799 384.959 347.189 384.959 347.674C384.959 348.158 385.102 348.539 385.387 348.816C385.676 349.094 386.076 349.232 386.588 349.232C387.096 349.232 387.494 349.094 387.783 348.816C388.072 348.535 388.217 348.154 388.217 347.674ZM386.588 342.242C386.162 342.242 385.816 342.375 385.551 342.641C385.289 342.902 385.158 343.26 385.158 343.713C385.158 344.146 385.287 344.498 385.545 344.768C385.807 345.033 386.154 345.166 386.588 345.166C387.021 345.166 387.367 345.033 387.625 344.768C387.887 344.498 388.018 344.146 388.018 343.713C388.018 343.279 387.883 342.926 387.613 342.652C387.344 342.379 387.002 342.242 386.588 342.242ZM395.242 347.135H396.426V348.02H395.242V350H394.152V348.02H390.268V347.381L394.088 341.469H395.242V347.135ZM391.498 347.135H394.152V342.951L394.023 343.186L391.498 347.135ZM402.754 346.361C402.754 347.631 402.537 348.574 402.104 349.191C401.67 349.809 400.992 350.117 400.07 350.117C399.16 350.117 398.486 349.816 398.049 349.215C397.611 348.609 397.385 347.707 397.369 346.508V345.061C397.369 343.807 397.586 342.875 398.02 342.266C398.453 341.656 399.133 341.352 400.059 341.352C400.977 341.352 401.652 341.646 402.086 342.236C402.52 342.822 402.742 343.729 402.754 344.955V346.361ZM401.67 344.879C401.67 343.961 401.541 343.293 401.283 342.875C401.025 342.453 400.617 342.242 400.059 342.242C399.504 342.242 399.1 342.451 398.846 342.869C398.592 343.287 398.461 343.93 398.453 344.797V346.531C398.453 347.453 398.586 348.135 398.852 348.576C399.121 349.014 399.527 349.232 400.07 349.232C400.605 349.232 401.002 349.025 401.26 348.611C401.521 348.197 401.658 347.545 401.67 346.654V344.879Z" fill="black"/>
</svg>
