<svg width="161" height="56" viewBox="0 0 161 56" fill="none" xmlns="http://www.w3.org/2000/svg">
<path d="M85.816 28.312C86.808 28.568 87.568 29.056 88.096 29.776C88.64 30.48 88.912 31.36 88.912 32.416C88.912 33.888 88.368 35.056 87.28 35.92C86.208 36.768 84.744 37.192 82.888 37.192C81.752 37.192 80.656 37.016 79.6 36.664C78.56 36.312 77.696 35.832 77.008 35.224L78.04 32.968C79.512 34.136 81.088 34.72 82.768 34.72C83.84 34.72 84.64 34.512 85.168 34.096C85.696 33.664 85.96 33.016 85.96 32.152C85.96 31.304 85.688 30.68 85.144 30.28C84.616 29.864 83.792 29.656 82.672 29.656H80.44V27.208H82.264C84.456 27.208 85.552 26.384 85.552 24.736C85.552 23.968 85.312 23.376 84.832 22.96C84.368 22.544 83.704 22.336 82.84 22.336C82.088 22.336 81.32 22.488 80.536 22.792C79.768 23.08 79.016 23.512 78.28 24.088L77.248 21.832C77.92 21.224 78.776 20.744 79.816 20.392C80.872 20.04 81.944 19.864 83.032 19.864C84.696 19.864 86.024 20.272 87.016 21.088C88.008 21.888 88.504 22.976 88.504 24.352C88.488 25.296 88.24 26.12 87.76 26.824C87.296 27.512 86.648 28.008 85.816 28.312ZM98.6466 26.152C99.6386 26.152 100.527 26.384 101.311 26.848C102.095 27.296 102.703 27.936 103.135 28.768C103.583 29.584 103.807 30.52 103.807 31.576C103.807 32.664 103.567 33.64 103.087 34.504C102.607 35.352 101.935 36.016 101.071 36.496C100.207 36.976 99.2306 37.216 98.1426 37.216C95.9986 37.216 94.3426 36.496 93.1746 35.056C92.0226 33.6 91.4466 31.528 91.4466 28.84C91.4466 26.984 91.7186 25.384 92.2626 24.04C92.8226 22.68 93.6226 21.648 94.6626 20.944C95.7026 20.224 96.9346 19.864 98.3586 19.864C99.3666 19.864 100.351 20.04 101.311 20.392C102.271 20.728 103.103 21.208 103.807 21.832L102.775 24.088C101.287 22.92 99.8546 22.336 98.4786 22.336C97.2466 22.336 96.2866 22.864 95.5986 23.92C94.9106 24.96 94.5506 26.472 94.5186 28.456C94.8866 27.736 95.4386 27.176 96.1746 26.776C96.9106 26.36 97.7346 26.152 98.6466 26.152ZM97.9986 34.768C98.8786 34.768 99.5746 34.488 100.087 33.928C100.615 33.368 100.879 32.616 100.879 31.672C100.879 30.744 100.615 30 100.087 29.44C99.5586 28.88 98.8546 28.6 97.9746 28.6C97.0946 28.6 96.3746 28.888 95.8146 29.464C95.2706 30.024 94.9986 30.76 94.9986 31.672C94.9986 32.6 95.2706 33.352 95.8146 33.928C96.3746 34.488 97.1026 34.768 97.9986 34.768ZM111.981 37.216C109.981 37.216 108.453 36.48 107.397 35.008C106.341 33.52 105.813 31.36 105.813 28.528C105.813 25.728 106.341 23.592 107.397 22.12C108.453 20.648 109.981 19.912 111.981 19.912C113.981 19.912 115.509 20.648 116.565 22.12C117.621 23.592 118.149 25.728 118.149 28.528C118.149 31.344 117.621 33.496 116.565 34.984C115.509 36.472 113.981 37.216 111.981 37.216ZM111.981 34.792C113.069 34.792 113.861 34.296 114.357 33.304C114.853 32.296 115.101 30.704 115.101 28.528C115.101 26.368 114.853 24.8 114.357 23.824C113.861 22.832 113.069 22.336 111.981 22.336C110.893 22.336 110.101 22.832 109.605 23.824C109.109 24.8 108.861 26.368 108.861 28.528C108.861 30.704 109.109 32.296 109.605 33.304C110.101 34.296 110.893 34.792 111.981 34.792ZM120.996 20.08H128.388C130.196 20.08 131.604 20.536 132.612 21.448C133.62 22.344 134.124 23.608 134.124 25.24C134.124 26.872 133.62 28.144 132.612 29.056C131.604 29.968 130.196 30.424 128.388 30.424H124.092V37H120.996V20.08ZM128.004 28.048C130.132 28.048 131.196 27.12 131.196 25.264C131.196 24.32 130.932 23.624 130.404 23.176C129.876 22.712 129.076 22.48 128.004 22.48H124.092V28.048H128.004ZM141.311 24.976C142.959 24.976 144.183 25.376 144.983 26.176C145.783 26.976 146.183 28.208 146.183 29.872V37H143.327V35.2C143.055 35.824 142.623 36.312 142.031 36.664C141.455 37.016 140.783 37.192 140.015 37.192C139.231 37.192 138.519 37.032 137.879 36.712C137.239 36.392 136.735 35.952 136.367 35.392C135.999 34.832 135.815 34.208 135.815 33.52C135.815 32.656 136.031 31.976 136.463 31.48C136.911 30.984 137.631 30.624 138.623 30.4C139.615 30.176 140.983 30.064 142.727 30.064H143.327V29.512C143.327 28.712 143.151 28.136 142.799 27.784C142.463 27.432 141.895 27.256 141.095 27.256C140.471 27.256 139.815 27.368 139.127 27.592C138.455 27.8 137.791 28.096 137.135 28.48L136.295 26.416C136.951 26 137.743 25.656 138.671 25.384C139.599 25.112 140.479 24.976 141.311 24.976ZM140.615 35.032C141.415 35.032 142.063 34.768 142.559 34.24C143.071 33.696 143.327 33 143.327 32.152V31.648H142.895C141.823 31.648 140.991 31.696 140.399 31.792C139.807 31.888 139.383 32.056 139.127 32.296C138.871 32.536 138.743 32.864 138.743 33.28C138.743 33.792 138.919 34.216 139.271 34.552C139.623 34.872 140.071 35.032 140.615 35.032ZM160.416 25.288L153.36 41.32H150.336L152.472 36.544L147.576 25.288H150.744L154.056 33.568L157.464 25.288H160.416Z" fill="#716767"/>
<path d="M28 43C15.8497 43 6 33.1503 6 21L59 21C59 33.1503 49.1503 43 37 43H28Z" fill="#FBD334"/>
<path d="M0 28C0 12.536 12.536 0 28 0H31V56H28C12.536 56 0 43.464 0 28Z" fill="#1249BE"/>
</svg>
